<svg xmlns="http://www.w3.org/2000/svg" xmlns:xlink="http://www.w3.org/1999/xlink" width="57.065" height="66.869" viewBox="0 0 57.065 66.869">
  <defs>
    <linearGradient id="linear-gradient" x1="1" y1="0.5" x2="0" y2="0.5" gradientUnits="objectBoundingBox">
      <stop offset="0" stop-color="#5fefc0"/>
      <stop offset="0.628" stop-color="#4ca5dc"/>
      <stop offset="1" stop-color="#437fec"/>
    </linearGradient>
    <clipPath id="clip-path">
      <path id="Path_1561595" data-name="Path 1561595" d="M2389.558,262.963l-.014,0,.04-.106c.005-.016.012-.029.017-.044,8.5-22.446,8.5-22.446,8.5-22.446.92,3.06,7.578,19.3,8.5,22.362h-.041a3.028,3.028,0,0,1,.226,1.187,4.192,4.192,0,0,1-2.071,3.138,12.134,12.134,0,0,1-6.813,1.752,11.649,11.649,0,0,1-6.694-1.994,4.025,4.025,0,0,1-1.766-2.939A2.979,2.979,0,0,1,2389.558,262.963Z" transform="translate(-2389.439 -240.364)" fill="none"/>
    </clipPath>
    <clipPath id="clip-path-2">
      <path id="Path_1561632" data-name="Path 1561632" d="M2344.159,196.928l-.011,0,.029-.076c0-.011.009-.021.012-.033,6.118-16.152,6.119-16.152,6.119-16.152.662,2.2,5.452,13.891,6.115,16.092h-.028a2.187,2.187,0,0,1,.161.854,3.013,3.013,0,0,1-1.49,2.258,8.731,8.731,0,0,1-4.9,1.261,8.381,8.381,0,0,1-4.817-1.435,2.9,2.9,0,0,1-1.272-2.115A2.109,2.109,0,0,1,2344.159,196.928Z" transform="translate(-2344.073 -180.665)" fill="none"/>
    </clipPath>
  </defs>
  <g id="Group_1138136" data-name="Group 1138136" transform="translate(-780 -4693.988)">
    <g id="Group_1136294" data-name="Group 1136294" transform="translate(780 4731.383)">
      <g id="Group_1135907" data-name="Group 1135907" transform="translate(0 16.541)" style="mix-blend-mode: multiply;isolation: isolate">
        <g id="Group_1135886" data-name="Group 1135886" opacity="0">
          <g id="Group_1135885" data-name="Group 1135885" style="isolation: isolate">
            <g id="Group_1135884" data-name="Group 1135884">
              <path id="Path_1561559" data-name="Path 1561559" d="M2392.577,272.008c-2.045-1.315-7.626-5.517,4.073-5.222,3.431.086,10.9-.026,12.039.058.374.03.74.046,1.1.1a4.133,4.133,0,0,1,1.59.529c.9.567,6.7,5.619,6.707,6.388.008,1.378-.747,5.327-5.89,5.765a26.771,26.771,0,0,1-8.916-.906C2400.739,278.1,2394.452,273.215,2392.577,272.008Z" transform="translate(-2389.444 -266.771)" fill="#fff"/>
            </g>
          </g>
        </g>
        <g id="Group_1135887" data-name="Group 1135887" transform="translate(0.572 0.052)" opacity="0.048">
          <path id="Path_1561560" data-name="Path 1561560" d="M2408.167,266.878c.372.027.735.046,1.1.1a4.3,4.3,0,0,1,1.58.523,51.03,51.03,0,0,1,5.948,5.277,2.809,2.809,0,0,1,.734,1.037,5.662,5.662,0,0,1-.69,2.758,5.918,5.918,0,0,1-5,2.966,26.321,26.321,0,0,1-8.815-.78c-1.646-.378-4.733-2.405-7.246-4.185-1.443-1.022-2.7-1.962-3.353-2.44-.922-.626-2.582-1.866-2.9-2.97a1.185,1.185,0,0,1-.036-.536c.172-.961,1.9-1.751,6.967-1.7C2399.791,266.964,2406.993,266.792,2408.167,266.878Z" transform="translate(-2389.476 -266.854)" fill="#fcfcfe"/>
        </g>
        <g id="Group_1135888" data-name="Group 1135888" transform="translate(1.145 0.061)" opacity="0.095">
          <path id="Path_1561561" data-name="Path 1561561" d="M2407.641,266.888c.368.026.729.046,1.088.1a4.454,4.454,0,0,1,1.57.517,46.613,46.613,0,0,1,5.929,5.208,2.9,2.9,0,0,1,.73,1.03,5.4,5.4,0,0,1-.632,2.708,5.805,5.805,0,0,1-4.849,2.975,25.82,25.82,0,0,1-8.714-.653c-1.681-.365-4.736-2.314-7.219-4.075-1.418-1.007-2.649-1.951-3.274-2.465-.877-.629-2.439-1.843-2.722-2.92a1.2,1.2,0,0,1-.027-.52c.169-.912,1.853-1.719,6.743-1.746C2399.5,267.029,2406.429,266.8,2407.641,266.888Z" transform="translate(-2389.503 -266.868)" fill="#f8f9fd"/>
        </g>
        <g id="Group_1135889" data-name="Group 1135889" transform="translate(1.691 0.119)" opacity="0.143">
          <path id="Path_1561562" data-name="Path 1561562" d="M2407.152,266.977c.365.024.724.045,1.081.1a4.589,4.589,0,0,1,1.559.511,42.422,42.422,0,0,1,5.909,5.14,2.94,2.94,0,0,1,.726,1.023,5.152,5.152,0,0,1-.573,2.66,5.7,5.7,0,0,1-4.7,2.984,25.288,25.288,0,0,1-8.615-.527c-1.715-.353-4.737-2.223-7.191-3.966a37.016,37.016,0,0,1-3.2-2.49c-.832-.633-2.3-1.819-2.546-2.869a1.193,1.193,0,0,1-.016-.5c.165-.863,1.807-1.689,6.518-1.793C2399.24,267.174,2405.9,266.892,2407.152,266.977Z" transform="translate(-2389.567 -266.961)" fill="#f5f6fc"/>
        </g>
        <g id="Group_1135890" data-name="Group 1135890" transform="translate(2.253 0.145)" opacity="0.19">
          <path id="Path_1561563" data-name="Path 1561563" d="M2406.636,267.016c.363.023.719.045,1.073.1a4.73,4.73,0,0,1,1.549.5,39.123,39.123,0,0,1,5.888,5.072,3.009,3.009,0,0,1,.723,1.017,4.926,4.926,0,0,1-.514,2.61,5.586,5.586,0,0,1-4.557,2.992,24.68,24.68,0,0,1-8.515-.4c-1.75-.339-4.74-2.131-7.164-3.856a25.731,25.731,0,0,1-3.116-2.515c-.787-.636-2.154-1.8-2.372-2.818a1.222,1.222,0,0,1-.006-.489c.161-.814,1.761-1.659,6.293-1.842C2398.958,267.269,2405.349,266.933,2406.636,267.016Z" transform="translate(-2389.604 -267.003)" fill="#f1f3fb"/>
        </g>
        <g id="Group_1135891" data-name="Group 1135891" transform="translate(2.813 0.168)" opacity="0.238">
          <path id="Path_1561564" data-name="Path 1561564" d="M2406.12,267.051c.36.022.714.045,1.065.1a4.88,4.88,0,0,1,1.54.5,36.333,36.333,0,0,1,5.867,5,3.081,3.081,0,0,1,.719,1.01,4.71,4.71,0,0,1-.457,2.561,5.476,5.476,0,0,1-4.41,3,24.052,24.052,0,0,1-8.414-.274c-1.784-.326-4.743-2.04-7.137-3.747a19.5,19.5,0,0,1-3.036-2.539c-.743-.64-2.012-1.771-2.2-2.767a1.222,1.222,0,0,1,0-.473c.157-.766,1.716-1.63,6.069-1.889C2398.675,267.359,2404.8,266.969,2406.12,267.051Z" transform="translate(-2389.64 -267.04)" fill="#eef0fa"/>
        </g>
        <g id="Group_1135892" data-name="Group 1135892" transform="translate(3.373 0.188)" opacity="0.286">
          <path id="Path_1561565" data-name="Path 1561565" d="M2405.605,267.081c.356.021.707.045,1.057.1a5.026,5.026,0,0,1,1.53.492,33.933,33.933,0,0,1,5.847,4.937,3.152,3.152,0,0,1,.714,1,4.52,4.52,0,0,1-.4,2.511,5.372,5.372,0,0,1-4.264,3.009,23.387,23.387,0,0,1-8.314-.147c-1.819-.313-4.746-1.949-7.109-3.637a15.687,15.687,0,0,1-2.957-2.565c-.7-.643-1.87-1.748-2.021-2.717a1.244,1.244,0,0,1,.013-.457c.152-.716,1.671-1.6,5.844-1.937C2398.392,267.445,2404.241,267,2405.605,267.081Z" transform="translate(-2389.675 -267.072)" fill="#eaedf9"/>
        </g>
        <g id="Group_1135893" data-name="Group 1135893" transform="translate(3.931 0.205)" opacity="0.333">
          <path id="Path_1561566" data-name="Path 1561566" d="M2405.087,267.107a10.436,10.436,0,0,1,1.05.1,5.148,5.148,0,0,1,1.519.485,31.774,31.774,0,0,1,5.827,4.868,3.262,3.262,0,0,1,.711,1,4.343,4.343,0,0,1-.339,2.462,5.271,5.271,0,0,1-4.118,3.018,22.681,22.681,0,0,1-8.214-.021c-1.854-.3-4.748-1.857-7.082-3.528a13.078,13.078,0,0,1-2.878-2.59c-.653-.647-1.728-1.723-1.846-2.666a1.28,1.28,0,0,1,.023-.442c.148-.667,1.626-1.575,5.62-1.985C2398.108,267.524,2403.686,267.028,2405.087,267.107Z" transform="translate(-2389.708 -267.099)" fill="#e7eaf8"/>
        </g>
        <g id="Group_1135894" data-name="Group 1135894" transform="translate(4.489 0.218)" opacity="0.381">
          <path id="Path_1561567" data-name="Path 1561567" d="M2404.569,267.128a9.923,9.923,0,0,1,1.041.1,5.279,5.279,0,0,1,1.509.479,29.859,29.859,0,0,1,5.807,4.8,3.365,3.365,0,0,1,.707.99,4.189,4.189,0,0,1-.281,2.413,5.171,5.171,0,0,1-3.971,3.027,21.96,21.96,0,0,1-8.115.106c-1.888-.284-4.75-1.766-7.053-3.418a11.155,11.155,0,0,1-2.8-2.615,5.592,5.592,0,0,1-1.671-2.615,1.339,1.339,0,0,1,.032-.426c.143-.618,1.583-1.548,5.4-2.033C2397.824,267.6,2403.13,267.05,2404.569,267.128Z" transform="translate(-2389.74 -267.12)" fill="#e4e7f7"/>
        </g>
        <g id="Group_1135895" data-name="Group 1135895" transform="translate(5.045 0.229)" opacity="0.429">
          <path id="Path_1561568" data-name="Path 1561568" d="M2404.05,267.143a9.475,9.475,0,0,1,1.033.1,5.437,5.437,0,0,1,1.5.473,28.125,28.125,0,0,1,5.786,4.732,3.476,3.476,0,0,1,.7.983,4.038,4.038,0,0,1-.222,2.363,5.075,5.075,0,0,1-3.825,3.035,21.211,21.211,0,0,1-8.015.233,18.571,18.571,0,0,1-7.026-3.309,9.723,9.723,0,0,1-2.719-2.64,5.332,5.332,0,0,1-1.5-2.564,1.378,1.378,0,0,1,.043-.41c.137-.569,1.538-1.523,5.171-2.081A76.98,76.98,0,0,1,2404.05,267.143Z" transform="translate(-2389.768 -267.137)" fill="#e0e4f6"/>
        </g>
        <g id="Group_1135896" data-name="Group 1135896" transform="translate(5.599 0.236)" opacity="0.476">
          <path id="Path_1561569" data-name="Path 1561569" d="M2403.53,267.154a8.926,8.926,0,0,1,1.025.1,5.591,5.591,0,0,1,1.489.467,26.6,26.6,0,0,1,5.766,4.664,3.622,3.622,0,0,1,.7.976,3.9,3.9,0,0,1-.163,2.315,4.982,4.982,0,0,1-3.679,3.044,20.425,20.425,0,0,1-7.915.359,17.7,17.7,0,0,1-7-3.2,8.624,8.624,0,0,1-2.64-2.665,5.073,5.073,0,0,1-1.321-2.513,1.475,1.475,0,0,1,.053-.395c.131-.521,1.495-1.5,4.947-2.129A62.75,62.75,0,0,1,2403.53,267.154Z" transform="translate(-2389.794 -267.148)" fill="#dde1f5"/>
        </g>
        <g id="Group_1135897" data-name="Group 1135897" transform="translate(6.152 0.24)" opacity="0.524">
          <path id="Path_1561570" data-name="Path 1561570" d="M2403.009,267.159a8.642,8.642,0,0,1,1.017.1,5.758,5.758,0,0,1,1.479.46,25.192,25.192,0,0,1,5.745,4.6,2.649,2.649,0,0,1,.591,3.235,4.888,4.888,0,0,1-3.533,3.052,19.647,19.647,0,0,1-7.814.485,16.894,16.894,0,0,1-6.971-3.09,7.74,7.74,0,0,1-2.56-2.69,4.817,4.817,0,0,1-1.146-2.462,1.583,1.583,0,0,1,.063-.379c.124-.472,1.451-1.478,4.722-2.177A51.537,51.537,0,0,1,2403.009,267.159Z" transform="translate(-2389.819 -267.154)" fill="#d9def5"/>
        </g>
        <g id="Group_1135898" data-name="Group 1135898" transform="translate(6.702 0.24)" opacity="0.571">
          <path id="Path_1561571" data-name="Path 1561571" d="M2402.487,267.159a8.4,8.4,0,0,1,1.009.1,5.931,5.931,0,0,1,1.47.454,23.947,23.947,0,0,1,5.725,4.528,3.961,3.961,0,0,1,.693.963,3.675,3.675,0,0,1-.047,2.216,4.8,4.8,0,0,1-3.387,3.061,18.845,18.845,0,0,1-7.714.612,16.153,16.153,0,0,1-6.944-2.98,7.032,7.032,0,0,1-2.481-2.714,4.585,4.585,0,0,1-.971-2.412,1.791,1.791,0,0,1,.073-.363c.116-.423,1.407-1.458,4.5-2.224A42.538,42.538,0,0,1,2402.487,267.159Z" transform="translate(-2389.838 -267.155)" fill="#d6dbf4"/>
        </g>
        <g id="Group_1135899" data-name="Group 1135899" transform="translate(7.25 0.238)" opacity="0.619">
          <path id="Path_1561572" data-name="Path 1561572" d="M2401.963,267.156a7.916,7.916,0,0,1,1,.1,6.1,6.1,0,0,1,1.46.448,22.749,22.749,0,0,1,5.7,4.461,4.168,4.168,0,0,1,.69.956,3.568,3.568,0,0,1,.011,2.166,4.715,4.715,0,0,1-3.24,3.069,18.048,18.048,0,0,1-7.615.739,15.477,15.477,0,0,1-6.916-2.871,6.434,6.434,0,0,1-2.4-2.74,4.347,4.347,0,0,1-.8-2.36,2.011,2.011,0,0,1,.082-.348c.108-.375,1.365-1.439,4.274-2.272A35.163,35.163,0,0,1,2401.963,267.156Z" transform="translate(-2389.853 -267.152)" fill="#d2d8f3"/>
        </g>
        <g id="Group_1135900" data-name="Group 1135900" transform="translate(7.793 0.234)" opacity="0.667">
          <path id="Path_1561573" data-name="Path 1561573" d="M2401.44,267.148a7.586,7.586,0,0,1,.994.1,6.26,6.26,0,0,1,1.449.442,21.694,21.694,0,0,1,5.684,4.392,4.438,4.438,0,0,1,.686.949,3.477,3.477,0,0,1,.07,2.117,4.636,4.636,0,0,1-3.094,3.078,17.25,17.25,0,0,1-7.514.866,14.842,14.842,0,0,1-6.888-2.762,5.948,5.948,0,0,1-2.322-2.764,4.147,4.147,0,0,1-.621-2.309,2.628,2.628,0,0,1,.092-.332c.1-.327,1.321-1.423,4.05-2.32A29.134,29.134,0,0,1,2401.44,267.148Z" transform="translate(-2389.861 -267.144)" fill="#cfd5f2"/>
        </g>
        <g id="Group_1135901" data-name="Group 1135901" transform="translate(8.33 0.227)" opacity="0.714">
          <path id="Path_1561574" data-name="Path 1561574" d="M2400.914,267.136a7.259,7.259,0,0,1,.986.1,6.418,6.418,0,0,1,1.44.435A20.732,20.732,0,0,1,2409,272a4.711,4.711,0,0,1,.682.942,3.39,3.39,0,0,1,.129,2.068,4.56,4.56,0,0,1-2.948,3.086,16.453,16.453,0,0,1-7.415.992,14.2,14.2,0,0,1-6.86-2.652,5.51,5.51,0,0,1-2.244-2.789,3.957,3.957,0,0,1-.445-2.259c.023-.107.068-.207.1-.316.088-.279,1.276-1.409,3.824-2.368A24.178,24.178,0,0,1,2400.914,267.136Z" transform="translate(-2389.86 -267.133)" fill="#ccd2f1"/>
        </g>
        <g id="Group_1135902" data-name="Group 1135902" transform="translate(8.86 0.218)" opacity="0.762">
          <path id="Path_1561575" data-name="Path 1561575" d="M2400.389,267.121a7.072,7.072,0,0,1,.979.1,6.656,6.656,0,0,1,1.429.429,19.858,19.858,0,0,1,5.644,4.256,5.1,5.1,0,0,1,.678.936,3.32,3.32,0,0,1,.187,2.019,4.484,4.484,0,0,1-2.8,3.1,15.666,15.666,0,0,1-7.314,1.119,13.658,13.658,0,0,1-6.832-2.543,5.154,5.154,0,0,1-2.164-2.814,3.777,3.777,0,0,1-.271-2.207c.028-.1.078-.2.112-.3a8.564,8.564,0,0,1,3.6-2.416A20.073,20.073,0,0,1,2400.389,267.121Z" transform="translate(-2389.847 -267.119)" fill="#c8cff0"/>
        </g>
        <g id="Group_1135903" data-name="Group 1135903" transform="translate(9.379 0.207)" opacity="0.81">
          <path id="Path_1561576" data-name="Path 1561576" d="M2399.864,267.1a6.777,6.777,0,0,1,.97.1,6.887,6.887,0,0,1,1.419.423,19,19,0,0,1,5.623,4.188,5.531,5.531,0,0,1,.675.929,3.274,3.274,0,0,1,.246,1.969,4.418,4.418,0,0,1-2.656,3.1,14.89,14.89,0,0,1-7.215,1.245,13.157,13.157,0,0,1-6.805-2.433,4.858,4.858,0,0,1-2.084-2.839,3.618,3.618,0,0,1-.1-2.157c.032-.1.086-.185.122-.285a9.277,9.277,0,0,1,3.376-2.464A16.659,16.659,0,0,1,2399.864,267.1Z" transform="translate(-2389.816 -267.102)" fill="#c5ccef"/>
        </g>
        <g id="Group_1135904" data-name="Group 1135904" transform="translate(9.883 0.194)" opacity="0.857">
          <path id="Path_1561577" data-name="Path 1561577" d="M2399.343,267.083a6.5,6.5,0,0,1,.962.1,7.153,7.153,0,0,1,1.41.417,18.258,18.258,0,0,1,5.6,4.12,6.188,6.188,0,0,1,.671.923,3.238,3.238,0,0,1,.3,1.92,4.356,4.356,0,0,1-2.51,3.113,14.087,14.087,0,0,1-7.114,1.371,12.655,12.655,0,0,1-6.778-2.323,4.6,4.6,0,0,1-2-2.864,3.5,3.5,0,0,1,.08-2.106,2.056,2.056,0,0,1,.131-.269,9.772,9.772,0,0,1,3.152-2.511A13.847,13.847,0,0,1,2399.343,267.083Z" transform="translate(-2389.763 -267.081)" fill="#c1c9ee"/>
        </g>
        <g id="Group_1135905" data-name="Group 1135905" transform="translate(10.37 0.181)" opacity="0.905">
          <path id="Path_1561578" data-name="Path 1561578" d="M2398.823,267.062a6.436,6.436,0,0,1,.955.1,7.311,7.311,0,0,1,1.4.41,17.516,17.516,0,0,1,5.582,4.052,6.958,6.958,0,0,1,.667.916,3.2,3.2,0,0,1,.363,1.871,4.293,4.293,0,0,1-2.363,3.121,13.412,13.412,0,0,1-7.014,1.5,12.269,12.269,0,0,1-6.751-2.214,4.372,4.372,0,0,1-1.926-2.889,3.4,3.4,0,0,1,.255-2.056,2.533,2.533,0,0,1,.142-.253,11.064,11.064,0,0,1,2.927-2.559A11.553,11.553,0,0,1,2398.823,267.062Z" transform="translate(-2389.681 -267.061)" fill="#bec6ed"/>
        </g>
        <g id="Group_1135906" data-name="Group 1135906" transform="translate(10.839 0.166)" opacity="0.952">
          <path id="Path_1561579" data-name="Path 1561579" d="M2398.306,267.038a6.1,6.1,0,0,1,.947.1,7.585,7.585,0,0,1,1.389.4,16.848,16.848,0,0,1,5.563,3.983,8.119,8.119,0,0,1,.663.909,3.2,3.2,0,0,1,.422,1.822,4.238,4.238,0,0,1-2.217,3.129,12.668,12.668,0,0,1-6.915,1.625,11.845,11.845,0,0,1-6.723-2.1,4.179,4.179,0,0,1-1.846-2.914,3.335,3.335,0,0,1,.43-2c.047-.081.1-.16.151-.238a13.1,13.1,0,0,1,2.7-2.607A9.59,9.59,0,0,1,2398.306,267.038Z" transform="translate(-2389.571 -267.037)" fill="#bac3ec"/>
        </g>
        <path id="Path_1561580" data-name="Path 1561580" d="M2389.442,274.057a3.251,3.251,0,0,1,.6-1.954c.051-.076.106-.149.162-.222,0,0,3.507-4.959,7.582-4.868,3.577.079,7.419,3.846,7.86,4.414a10.158,10.158,0,0,1,.659.9,3.186,3.186,0,0,1,.48,1.772,4.19,4.19,0,0,1-2.071,3.138,12.133,12.133,0,0,1-6.814,1.751A11.646,11.646,0,0,1,2391.21,277,4.025,4.025,0,0,1,2389.442,274.057Z" transform="translate(-2378.146 -266.861)" fill="#b7c0eb"/>
      </g>
      <path id="Path_1561581" data-name="Path 1561581" d="M2389.558,263.437l-.014,0,.04-.106c.005-.015.012-.029.017-.044,8.5-22.446,8.5-22.446,8.5-22.446h0c.92,3.06,7.578,19.3,8.5,22.362l-.041,0a3.023,3.023,0,0,1,.226,1.186,4.192,4.192,0,0,1-2.071,3.138,12.139,12.139,0,0,1-6.813,1.752,11.654,11.654,0,0,1-6.694-1.994,4.025,4.025,0,0,1-1.766-2.939A2.973,2.973,0,0,1,2389.558,263.437Z" transform="translate(-2378.139 -240.541)" fill="#437fec"/>
      <path id="Path_1561582" data-name="Path 1561582" d="M2389.558,262.963l-.014,0,.04-.106c.005-.016.012-.029.017-.044,8.5-22.446,8.5-22.446,8.5-22.446h0c.92,3.06,7.578,19.3,8.5,22.362h-.041a3.028,3.028,0,0,1,.226,1.187,4.192,4.192,0,0,1-2.071,3.138,12.134,12.134,0,0,1-6.813,1.752,11.649,11.649,0,0,1-6.694-1.994,4.025,4.025,0,0,1-1.766-2.939A2.979,2.979,0,0,1,2389.558,262.963Z" transform="translate(-2378.139 -240.364)" fill="url(#linear-gradient)"/>
      <g id="Group_1135910" data-name="Group 1135910" transform="translate(11.3)" opacity="0.4">
        <g id="Group_1135909" data-name="Group 1135909" clip-path="url(#clip-path)">
          <g id="Group_1135908" data-name="Group 1135908" transform="translate(-6.633 -0.942)" style="mix-blend-mode: multiply;isolation: isolate">
            <path id="Path_1561583" data-name="Path 1561583" d="M2389.558,262.963l-.014,0,.04-.106c.005-.016.012-.029.017-.044,8.5-22.446,8.5-22.446,8.5-22.446h0c.92,3.06,7.578,19.3,8.5,22.362h-.041a3.028,3.028,0,0,1,.226,1.187,4.192,4.192,0,0,1-2.071,3.138,12.134,12.134,0,0,1-6.813,1.752,11.649,11.649,0,0,1-6.694-1.994,4.025,4.025,0,0,1-1.766-2.939A2.979,2.979,0,0,1,2389.558,262.963Z" transform="translate(-2382.806 -239.422)" fill="#437fec"/>
            <path id="Path_1561584" data-name="Path 1561584" d="M2390.355,262.815l-.015,0c.015-.036.028-.07.043-.106,0-.015.012-.029.017-.044,8.96-22.434,8.961-22.434,8.961-22.434h0c.871,3.1,7.277,19.561,8.148,22.656h-.04a3.043,3.043,0,0,1,.2,1.2,4.205,4.205,0,0,1-2.14,3.121,12.049,12.049,0,0,1-6.887,1.64,11.534,11.534,0,0,1-6.7-2.127,4.035,4.035,0,0,1-1.726-2.989A2.986,2.986,0,0,1,2390.355,262.815Z" transform="translate(-2384.186 -239.371)" fill="#548bee" opacity="0.909"/>
            <path id="Path_1561585" data-name="Path 1561585" d="M2391.151,262.667l-.015,0c.015-.036.029-.07.044-.106.006-.015.013-.029.019-.044l9.418-22.422h0c.822,3.131,6.978,19.819,7.8,22.95h-.041a3.052,3.052,0,0,1,.185,1.21,4.234,4.234,0,0,1-2.21,3.1,12.134,12.134,0,0,1-6.962,1.528,11.617,11.617,0,0,1-6.707-2.261,4.063,4.063,0,0,1-1.683-3.039A3.021,3.021,0,0,1,2391.151,262.667Z" transform="translate(-2385.565 -239.32)" fill="#6596ef" opacity="0.818"/>
            <path id="Path_1561586" data-name="Path 1561586" d="M2391.947,262.519l-.015,0,.047-.106c.006-.016.014-.029.019-.044l9.877-22.41h0c.772,3.168,6.677,20.077,7.449,23.244h-.041a3.078,3.078,0,0,1,.165,1.221,4.265,4.265,0,0,1-2.279,3.086,12.214,12.214,0,0,1-7.037,1.416,11.7,11.7,0,0,1-6.713-2.394,4.086,4.086,0,0,1-1.641-3.089A3.038,3.038,0,0,1,2391.947,262.519Z" transform="translate(-2386.943 -239.269)" fill="#76a2f1" opacity="0.727"/>
            <path id="Path_1561587" data-name="Path 1561587" d="M2392.743,262.371l-.015-.005.049-.105c.005-.016.014-.029.02-.044l10.335-22.4h0c.724,3.2,6.378,20.336,7.1,23.539h-.041a3.1,3.1,0,0,1,.146,1.233,4.3,4.3,0,0,1-2.349,3.068,12.308,12.308,0,0,1-7.112,1.3,11.787,11.787,0,0,1-6.719-2.527,4.12,4.12,0,0,1-1.6-3.14A3.02,3.02,0,0,1,2392.743,262.371Z" transform="translate(-2388.322 -239.218)" fill="#87aef3" opacity="0.636"/>
            <path id="Path_1561588" data-name="Path 1561588" d="M2393.538,262.223l-.015-.005c.018-.036.034-.07.051-.106.006-.015.015-.029.022-.044,10.792-22.387,10.793-22.387,10.793-22.387h0c.674,3.239,6.077,20.594,6.75,23.832l-.041,0a3.128,3.128,0,0,1,.126,1.245,4.326,4.326,0,0,1-2.419,3.05,12.4,12.4,0,0,1-7.186,1.193,11.873,11.873,0,0,1-6.725-2.66,4.148,4.148,0,0,1-1.558-3.191A3.053,3.053,0,0,1,2393.538,262.223Z" transform="translate(-2389.701 -239.167)" fill="#98b9f5" opacity="0.545"/>
            <path id="Path_1561589" data-name="Path 1561589" d="M2394.334,262.075l-.015,0,.052-.106c.007-.015.015-.029.022-.044,11.251-22.375,11.251-22.375,11.251-22.375h0c.625,3.275,5.777,20.852,6.4,24.127l-.042,0a3.148,3.148,0,0,1,.105,1.257,4.364,4.364,0,0,1-2.488,3.033,12.5,12.5,0,0,1-7.261,1.081,11.962,11.962,0,0,1-6.732-2.794,4.182,4.182,0,0,1-1.516-3.241A3.082,3.082,0,0,1,2394.334,262.075Z" transform="translate(-2391.079 -239.116)" fill="#aac5f6" opacity="0.455"/>
            <path id="Path_1561590" data-name="Path 1561590" d="M2395.128,261.927l-.015-.006c.02-.036.036-.07.055-.105.008-.016.017-.029.024-.044l11.709-22.364h0c.575,3.311,5.477,21.111,6.052,24.421l-.042,0a3.184,3.184,0,0,1,.085,1.268,4.4,4.4,0,0,1-2.559,3.015,12.591,12.591,0,0,1-7.335.97,12.059,12.059,0,0,1-6.738-2.927,4.214,4.214,0,0,1-1.474-3.292A3.121,3.121,0,0,1,2395.128,261.927Z" transform="translate(-2392.457 -239.064)" fill="#bbd0f8" opacity="0.364"/>
            <path id="Path_1561591" data-name="Path 1561591" d="M2395.924,261.779l-.015-.006c.02-.036.038-.07.057-.105.007-.016.017-.029.025-.044l12.167-22.352h0c.525,3.347,5.177,21.369,5.7,24.715l-.043,0a3.212,3.212,0,0,1,.066,1.28,4.434,4.434,0,0,1-2.628,3,12.692,12.692,0,0,1-7.41.858,12.155,12.155,0,0,1-6.745-3.06,4.249,4.249,0,0,1-1.432-3.342A3.139,3.139,0,0,1,2395.924,261.779Z" transform="translate(-2393.834 -239.014)" fill="#ccdcfa" opacity="0.273"/>
            <path id="Path_1561592" data-name="Path 1561592" d="M2396.718,261.63l-.015-.006c.021-.036.04-.07.059-.106.008-.015.017-.029.025-.044l12.626-22.34h0c.477,3.383,4.877,21.628,5.354,25.009l-.042-.005a3.247,3.247,0,0,1,.045,1.291,4.469,4.469,0,0,1-2.7,2.98,12.809,12.809,0,0,1-7.485.746,12.258,12.258,0,0,1-6.75-3.193,4.283,4.283,0,0,1-1.39-3.392A3.188,3.188,0,0,1,2396.718,261.63Z" transform="translate(-2395.213 -238.962)" fill="#dde8fc" opacity="0.182"/>
            <path id="Path_1561593" data-name="Path 1561593" d="M2397.513,261.482l-.015-.006.061-.105c.008-.016.019-.029.026-.044L2410.669,239h0c.427,3.419,4.577,21.886,5,25.3l-.043-.006a3.247,3.247,0,0,1,.025,1.3,4.506,4.506,0,0,1-2.766,2.963,12.915,12.915,0,0,1-7.559.635,12.362,12.362,0,0,1-6.757-3.326,4.32,4.32,0,0,1-1.349-3.443A3.183,3.183,0,0,1,2397.513,261.482Z" transform="translate(-2396.589 -238.911)" fill="#eef3fd" opacity="0.091"/>
            <path id="Path_1561594" data-name="Path 1561594" d="M2398.306,261.334l-.015-.006.064-.105c.008-.016.019-.029.027-.044l13.542-22.318h0c.378,3.455,4.277,22.144,4.655,25.6l-.043-.006a3.27,3.27,0,0,1,.006,1.314,4.556,4.556,0,0,1-2.836,2.945,13.2,13.2,0,0,1-7.634.523,12.675,12.675,0,0,1-6.764-3.46,4.38,4.38,0,0,1-1.306-3.493A3.2,3.2,0,0,1,2398.306,261.334Z" transform="translate(-2397.965 -238.86)" fill="#fff" opacity="0"/>
          </g>
        </g>
      </g>
    </g>
    <g id="Group_1136295" data-name="Group 1136295" transform="translate(816.449 4693.988)">
      <g id="Group_1135935" data-name="Group 1135935" transform="translate(0 11.903)" style="mix-blend-mode: multiply;isolation: isolate">
        <g id="Group_1135914" data-name="Group 1135914" opacity="0">
          <g id="Group_1135913" data-name="Group 1135913" style="isolation: isolate">
            <g id="Group_1135912" data-name="Group 1135912">
              <path id="Path_1561596" data-name="Path 1561596" d="M2346.331,203.437c-1.471-.946-5.488-3.97,2.931-3.758,2.47.063,7.846-.018,8.664.042.269.021.532.033.794.071a2.959,2.959,0,0,1,1.144.381c.649.408,4.823,4.043,4.826,4.6.005.992-.538,3.834-4.239,4.149a19.258,19.258,0,0,1-6.415-.653C2352.2,207.824,2347.681,204.306,2346.331,203.437Z" transform="translate(-2344.077 -199.668)" fill="#fff"/>
            </g>
          </g>
        </g>
        <g id="Group_1135915" data-name="Group 1135915" transform="translate(0.412 0.037)" opacity="0.048">
          <path id="Path_1561597" data-name="Path 1561597" d="M2357.55,199.746c.267.019.529.033.789.071a3.1,3.1,0,0,1,1.137.376,36.715,36.715,0,0,1,4.283,3.8,2.024,2.024,0,0,1,.526.744,4.076,4.076,0,0,1-.5,1.985,4.26,4.26,0,0,1-3.595,2.134,18.929,18.929,0,0,1-6.343-.561c-1.186-.272-3.406-1.731-5.215-3.012-1.039-.735-1.941-1.412-2.413-1.756-.663-.45-1.858-1.343-2.084-2.138a.858.858,0,0,1-.028-.375c.114-.7,1.351-1.27,5.016-1.232C2351.522,199.807,2356.705,199.683,2357.55,199.746Z" transform="translate(-2344.099 -199.728)" fill="#fcfcfe"/>
        </g>
        <g id="Group_1135916" data-name="Group 1135916" transform="translate(0.824 0.044)" opacity="0.095">
          <path id="Path_1561598" data-name="Path 1561598" d="M2357.171,199.752c.265.019.525.033.783.071a3.208,3.208,0,0,1,1.129.372,33.475,33.475,0,0,1,4.268,3.75,2.071,2.071,0,0,1,.524.739,3.883,3.883,0,0,1-.455,1.949,4.176,4.176,0,0,1-3.489,2.141,18.591,18.591,0,0,1-6.271-.47,19.866,19.866,0,0,1-5.2-2.933c-1.02-.724-1.906-1.4-2.356-1.774-.631-.453-1.755-1.326-1.958-2.1a.864.864,0,0,1-.021-.365c.112-.661,1.318-1.248,4.854-1.267C2351.311,199.854,2356.3,199.69,2357.171,199.752Z" transform="translate(-2344.119 -199.738)" fill="#f8f9fd"/>
        </g>
        <g id="Group_1135917" data-name="Group 1135917" transform="translate(1.217 0.086)" opacity="0.143">
          <path id="Path_1561599" data-name="Path 1561599" d="M2356.82,199.816c.263.018.521.033.777.071a3.307,3.307,0,0,1,1.123.368,30.476,30.476,0,0,1,4.254,3.7,2.105,2.105,0,0,1,.521.735,3.7,3.7,0,0,1-.412,1.914,4.1,4.1,0,0,1-3.385,2.147,18.185,18.185,0,0,1-6.2-.379,18.625,18.625,0,0,1-5.175-2.854,26.665,26.665,0,0,1-2.3-1.792c-.6-.455-1.654-1.309-1.833-2.065a.869.869,0,0,1-.013-.354c.11-.625,1.285-1.225,4.692-1.3C2351.127,199.958,2355.921,199.756,2356.82,199.816Z" transform="translate(-2344.166 -199.805)" fill="#f5f6fc"/>
        </g>
        <g id="Group_1135918" data-name="Group 1135918" transform="translate(1.621 0.105)" opacity="0.19">
          <path id="Path_1561600" data-name="Path 1561600" d="M2356.449,199.844c.26.017.517.033.772.071a3.412,3.412,0,0,1,1.115.363,28.127,28.127,0,0,1,4.239,3.652,2.168,2.168,0,0,1,.519.73,3.549,3.549,0,0,1-.371,1.879,4.022,4.022,0,0,1-3.279,2.153,17.771,17.771,0,0,1-6.127-.288,17.51,17.51,0,0,1-5.155-2.775,18.377,18.377,0,0,1-2.242-1.81c-.567-.458-1.551-1.292-1.707-2.028a.876.876,0,0,1-.006-.343c.108-.59,1.253-1.2,4.531-1.334C2350.923,200.027,2355.523,199.785,2356.449,199.844Z" transform="translate(-2344.192 -199.835)" fill="#f1f3fb"/>
        </g>
        <g id="Group_1135919" data-name="Group 1135919" transform="translate(2.025 0.122)" opacity="0.238">
          <path id="Path_1561601" data-name="Path 1561601" d="M2356.079,199.87c.259.016.513.032.766.071a3.5,3.5,0,0,1,1.107.358,26.179,26.179,0,0,1,4.225,3.6,2.2,2.2,0,0,1,.515.725,3.389,3.389,0,0,1-.328,1.843,3.945,3.945,0,0,1-3.174,2.159,17.312,17.312,0,0,1-6.056-.2,16.524,16.524,0,0,1-5.135-2.7,13.984,13.984,0,0,1-2.185-1.828c-.535-.46-1.449-1.274-1.581-1.991a.906.906,0,0,1,0-.333c.105-.554,1.222-1.181,4.369-1.368C2350.721,200.092,2355.125,199.811,2356.079,199.87Z" transform="translate(-2344.219 -199.862)" fill="#eef0fa"/>
        </g>
        <g id="Group_1135920" data-name="Group 1135920" transform="translate(2.427 0.136)" opacity="0.286">
          <path id="Path_1561602" data-name="Path 1561602" d="M2355.707,199.892c.257.015.509.032.76.071a3.6,3.6,0,0,1,1.1.354,24.39,24.39,0,0,1,4.21,3.554,2.273,2.273,0,0,1,.513.72A3.258,3.258,0,0,1,2362,206.4a3.866,3.866,0,0,1-3.069,2.165,16.821,16.821,0,0,1-5.983-.106,15.611,15.611,0,0,1-5.116-2.618,11.248,11.248,0,0,1-2.128-1.846,4.42,4.42,0,0,1-1.455-1.954.92.92,0,0,1,.008-.321c.1-.519,1.191-1.161,4.208-1.4C2350.517,200.153,2354.725,199.834,2355.707,199.892Z" transform="translate(-2344.243 -199.885)" fill="#eaedf9"/>
        </g>
        <g id="Group_1135921" data-name="Group 1135921" transform="translate(2.829 0.148)" opacity="0.333">
          <path id="Path_1561603" data-name="Path 1561603" d="M2355.334,199.91a7.555,7.555,0,0,1,.755.071,3.7,3.7,0,0,1,1.093.35,22.815,22.815,0,0,1,4.195,3.5,2.35,2.35,0,0,1,.511.716,3.133,3.133,0,0,1-.244,1.771,3.793,3.793,0,0,1-2.963,2.172,16.338,16.338,0,0,1-5.912-.014,14.807,14.807,0,0,1-5.1-2.539,9.408,9.408,0,0,1-2.071-1.864,4.218,4.218,0,0,1-1.328-1.918.931.931,0,0,1,.016-.311c.1-.484,1.159-1.141,4.047-1.436C2350.313,200.21,2354.326,199.853,2355.334,199.91Z" transform="translate(-2344.267 -199.904)" fill="#e7eaf8"/>
        </g>
        <g id="Group_1135922" data-name="Group 1135922" transform="translate(3.23 0.157)" opacity="0.381">
          <path id="Path_1561604" data-name="Path 1561604" d="M2354.961,199.925a7.28,7.28,0,0,1,.75.071,3.828,3.828,0,0,1,1.086.345,21.478,21.478,0,0,1,4.18,3.456,2.417,2.417,0,0,1,.508.711,3.019,3.019,0,0,1-.2,1.736,3.723,3.723,0,0,1-2.859,2.178,15.812,15.812,0,0,1-5.84.076,14.061,14.061,0,0,1-5.076-2.46,8.025,8.025,0,0,1-2.013-1.882,4.013,4.013,0,0,1-1.2-1.881.948.948,0,0,1,.022-.3c.1-.448,1.128-1.121,3.885-1.471C2350.108,200.264,2353.926,199.869,2354.961,199.925Z" transform="translate(-2344.29 -199.92)" fill="#e4e7f7"/>
        </g>
        <g id="Group_1135923" data-name="Group 1135923" transform="translate(3.631 0.165)" opacity="0.429">
          <path id="Path_1561605" data-name="Path 1561605" d="M2354.588,199.936a6.836,6.836,0,0,1,.743.071,3.926,3.926,0,0,1,1.08.341,20.252,20.252,0,0,1,4.165,3.406,2.528,2.528,0,0,1,.506.706,2.919,2.919,0,0,1-.16,1.7,3.652,3.652,0,0,1-2.753,2.184,15.257,15.257,0,0,1-5.767.167,13.353,13.353,0,0,1-5.056-2.382,7,7,0,0,1-1.957-1.9,3.827,3.827,0,0,1-1.076-1.845,1.035,1.035,0,0,1,.03-.289c.094-.413,1.1-1.1,3.724-1.5A55.474,55.474,0,0,1,2354.588,199.936Z" transform="translate(-2344.31 -199.932)" fill="#e0e4f6"/>
        </g>
        <g id="Group_1135924" data-name="Group 1135924" transform="translate(4.03 0.17)" opacity="0.476">
          <path id="Path_1561606" data-name="Path 1561606" d="M2354.213,199.944a6.479,6.479,0,0,1,.738.071,4.039,4.039,0,0,1,1.071.336,19.138,19.138,0,0,1,4.151,3.358,2.607,2.607,0,0,1,.5.7,2.819,2.819,0,0,1-.118,1.666,3.585,3.585,0,0,1-2.648,2.191,14.71,14.71,0,0,1-5.7.259,12.753,12.753,0,0,1-5.037-2.3,6.219,6.219,0,0,1-1.9-1.917,3.633,3.633,0,0,1-.951-1.808,1.123,1.123,0,0,1,.037-.279c.09-.377,1.067-1.085,3.562-1.538A45.262,45.262,0,0,1,2354.213,199.944Z" transform="translate(-2344.329 -199.939)" fill="#dde1f5"/>
        </g>
        <g id="Group_1135925" data-name="Group 1135925" transform="translate(4.427 0.172)" opacity="0.524">
          <path id="Path_1561607" data-name="Path 1561607" d="M2353.839,199.947a6.25,6.25,0,0,1,.732.072,4.128,4.128,0,0,1,1.064.331,18.112,18.112,0,0,1,4.136,3.309,1.9,1.9,0,0,1,.425,2.326,3.518,3.518,0,0,1-2.543,2.2,14.135,14.135,0,0,1-5.624.35,12.163,12.163,0,0,1-5.016-2.224,5.578,5.578,0,0,1-1.842-1.936,3.46,3.46,0,0,1-.825-1.771,1.2,1.2,0,0,1,.045-.268c.085-.342,1.036-1.069,3.4-1.572A37.214,37.214,0,0,1,2353.839,199.947Z" transform="translate(-2344.346 -199.943)" fill="#d9def5"/>
        </g>
        <g id="Group_1135926" data-name="Group 1135926" transform="translate(4.823 0.173)" opacity="0.571">
          <path id="Path_1561608" data-name="Path 1561608" d="M2353.463,199.948a6.019,6.019,0,0,1,.726.071,4.262,4.262,0,0,1,1.057.327,17.209,17.209,0,0,1,4.122,3.26,2.865,2.865,0,0,1,.5.692,2.638,2.638,0,0,1-.034,1.595,3.454,3.454,0,0,1-2.437,2.2,13.563,13.563,0,0,1-5.552.441,11.642,11.642,0,0,1-5-2.145,5.067,5.067,0,0,1-1.785-1.954,3.286,3.286,0,0,1-.7-1.735,1.377,1.377,0,0,1,.051-.257c.081-.308,1.007-1.054,3.239-1.607A30.615,30.615,0,0,1,2353.463,199.948Z" transform="translate(-2344.36 -199.945)" fill="#d6dbf4"/>
        </g>
        <g id="Group_1135927" data-name="Group 1135927" transform="translate(5.217 0.172)" opacity="0.619">
          <path id="Path_1561609" data-name="Path 1561609" d="M2353.086,199.945a5.8,5.8,0,0,1,.72.071,4.385,4.385,0,0,1,1.05.323,16.385,16.385,0,0,1,4.107,3.21,2.992,2.992,0,0,1,.5.687,2.569,2.569,0,0,1,.009,1.559,3.393,3.393,0,0,1-2.333,2.209,12.978,12.978,0,0,1-5.479.532,11.124,11.124,0,0,1-4.977-2.066,4.631,4.631,0,0,1-1.729-1.971,3.116,3.116,0,0,1-.573-1.7,1.676,1.676,0,0,1,.058-.246c.075-.272.977-1.04,3.078-1.641A25.356,25.356,0,0,1,2353.086,199.945Z" transform="translate(-2344.371 -199.942)" fill="#d2d8f3"/>
        </g>
        <g id="Group_1135928" data-name="Group 1135928" transform="translate(5.608 0.168)" opacity="0.667">
          <path id="Path_1561610" data-name="Path 1561610" d="M2352.709,199.94a5.633,5.633,0,0,1,.716.071,4.523,4.523,0,0,1,1.042.318,15.634,15.634,0,0,1,4.092,3.161,3.189,3.189,0,0,1,.493.682,2.5,2.5,0,0,1,.051,1.524,3.336,3.336,0,0,1-2.227,2.215,12.415,12.415,0,0,1-5.408.623,10.687,10.687,0,0,1-4.956-1.987,4.281,4.281,0,0,1-1.672-1.989,2.969,2.969,0,0,1-.446-1.662,1.928,1.928,0,0,1,.066-.236c.069-.237.945-1.028,2.915-1.674A20.989,20.989,0,0,1,2352.709,199.94Z" transform="translate(-2344.377 -199.937)" fill="#cfd5f2"/>
        </g>
        <g id="Group_1135929" data-name="Group 1135929" transform="translate(5.994 0.163)" opacity="0.714">
          <path id="Path_1561611" data-name="Path 1561611" d="M2352.331,199.931a5.311,5.311,0,0,1,.709.072,4.658,4.658,0,0,1,1.036.313,14.917,14.917,0,0,1,4.077,3.113,3.413,3.413,0,0,1,.49.678,2.444,2.444,0,0,1,.094,1.488,3.283,3.283,0,0,1-2.122,2.221,11.84,11.84,0,0,1-5.336.713,10.22,10.22,0,0,1-4.937-1.908,3.966,3.966,0,0,1-1.615-2.008,2.838,2.838,0,0,1-.321-1.626c.017-.076.05-.147.073-.224a5.717,5.717,0,0,1,2.754-1.709A17.413,17.413,0,0,1,2352.331,199.931Z" transform="translate(-2344.375 -199.929)" fill="#ccd2f1"/>
        </g>
        <g id="Group_1135930" data-name="Group 1135930" transform="translate(6.376 0.157)" opacity="0.762">
          <path id="Path_1561612" data-name="Path 1561612" d="M2351.953,199.921a5.044,5.044,0,0,1,.7.071,4.82,4.82,0,0,1,1.028.309,14.269,14.269,0,0,1,4.063,3.064,3.663,3.663,0,0,1,.488.673,2.393,2.393,0,0,1,.135,1.453,3.229,3.229,0,0,1-2.016,2.227,11.272,11.272,0,0,1-5.264.8,9.825,9.825,0,0,1-4.917-1.829,3.715,3.715,0,0,1-1.558-2.026,2.707,2.707,0,0,1-.194-1.589c.02-.073.056-.14.08-.214a6.1,6.1,0,0,1,2.593-1.743A14.447,14.447,0,0,1,2351.953,199.921Z" transform="translate(-2344.366 -199.919)" fill="#c8cff0"/>
        </g>
        <g id="Group_1135931" data-name="Group 1135931" transform="translate(6.749 0.149)" opacity="0.81">
          <path id="Path_1561613" data-name="Path 1561613" d="M2351.576,199.908a4.872,4.872,0,0,1,.7.072,4.947,4.947,0,0,1,1.021.3,13.7,13.7,0,0,1,4.048,3.015,3.968,3.968,0,0,1,.485.668,2.353,2.353,0,0,1,.177,1.418,3.175,3.175,0,0,1-1.911,2.233,10.711,10.711,0,0,1-5.191.9,9.464,9.464,0,0,1-4.9-1.751,3.5,3.5,0,0,1-1.5-2.043,2.6,2.6,0,0,1-.068-1.552c.024-.069.063-.132.087-.2a6.634,6.634,0,0,1,2.432-1.776A12,12,0,0,1,2351.576,199.908Z" transform="translate(-2344.344 -199.906)" fill="#c5ccef"/>
        </g>
        <g id="Group_1135932" data-name="Group 1135932" transform="translate(7.112 0.14)" opacity="0.857">
          <path id="Path_1561614" data-name="Path 1561614" d="M2351.2,199.893a4.72,4.72,0,0,1,.692.072,5.112,5.112,0,0,1,1.014.3,13.116,13.116,0,0,1,4.033,2.965,4.365,4.365,0,0,1,.482.663,2.314,2.314,0,0,1,.219,1.382,3.132,3.132,0,0,1-1.806,2.24,10.143,10.143,0,0,1-5.12.987,9.1,9.1,0,0,1-4.878-1.672,3.306,3.306,0,0,1-1.443-2.061,2.513,2.513,0,0,1,.057-1.516,1.618,1.618,0,0,1,.095-.192,6.973,6.973,0,0,1,2.271-1.811A9.966,9.966,0,0,1,2351.2,199.893Z" transform="translate(-2344.305 -199.892)" fill="#c1c9ee"/>
        </g>
        <g id="Group_1135933" data-name="Group 1135933" transform="translate(7.462 0.13)" opacity="0.905">
          <path id="Path_1561615" data-name="Path 1561615" d="M2350.826,199.877a4.654,4.654,0,0,1,.687.072,5.256,5.256,0,0,1,1.006.3,12.59,12.59,0,0,1,4.018,2.916,5,5,0,0,1,.48.658,2.3,2.3,0,0,1,.261,1.347,3.088,3.088,0,0,1-1.7,2.246,9.65,9.65,0,0,1-5.047,1.079,8.831,8.831,0,0,1-4.858-1.593,3.15,3.15,0,0,1-1.386-2.08,2.449,2.449,0,0,1,.183-1.479,1.852,1.852,0,0,1,.1-.181,7.908,7.908,0,0,1,2.108-1.845A8.322,8.322,0,0,1,2350.826,199.877Z" transform="translate(-2344.247 -199.876)" fill="#bec6ed"/>
        </g>
        <g id="Group_1135934" data-name="Group 1135934" transform="translate(7.8 0.12)" opacity="0.952">
          <path id="Path_1561616" data-name="Path 1561616" d="M2350.453,199.86a4.343,4.343,0,0,1,.681.072,5.492,5.492,0,0,1,1,.291,12.1,12.1,0,0,1,4,2.867,5.628,5.628,0,0,1,.477.654,2.3,2.3,0,0,1,.3,1.311,3.052,3.052,0,0,1-1.6,2.252,9.119,9.119,0,0,1-4.975,1.169,8.518,8.518,0,0,1-4.838-1.515,3,3,0,0,1-1.329-2.1,2.39,2.39,0,0,1,.31-1.442c.033-.058.069-.115.108-.171a9.4,9.4,0,0,1,1.947-1.879A6.908,6.908,0,0,1,2350.453,199.86Z" transform="translate(-2344.168 -199.859)" fill="#bac3ec"/>
        </g>
        <path id="Path_1561617" data-name="Path 1561617" d="M2344.076,204.912a2.342,2.342,0,0,1,.436-1.406c.036-.054.076-.107.116-.16,0,0,2.524-3.568,5.456-3.5,2.573.057,5.339,2.768,5.656,3.176a7.339,7.339,0,0,1,.475.649,2.3,2.3,0,0,1,.345,1.275,3.015,3.015,0,0,1-1.49,2.258,8.739,8.739,0,0,1-4.9,1.261,8.385,8.385,0,0,1-4.818-1.436A2.9,2.9,0,0,1,2344.076,204.912Z" transform="translate(-2335.946 -199.733)" fill="#b7c0eb"/>
      </g>
      <path id="Path_1561618" data-name="Path 1561618" d="M2344.159,197.269l-.011,0,.029-.076c0-.011.009-.021.012-.032,6.118-16.152,6.119-16.152,6.119-16.152h0c.662,2.2,5.452,13.89,6.115,16.092h-.028a2.185,2.185,0,0,1,.161.854,3.013,3.013,0,0,1-1.49,2.258,8.736,8.736,0,0,1-4.9,1.261,8.377,8.377,0,0,1-4.817-1.436,2.894,2.894,0,0,1-1.272-2.115A2.108,2.108,0,0,1,2344.159,197.269Z" transform="translate(-2335.941 -180.792)" fill="#437fec"/>
      <path id="Path_1561619" data-name="Path 1561619" d="M2344.159,196.928l-.011,0,.029-.076c0-.011.009-.021.012-.033,6.118-16.152,6.119-16.152,6.119-16.152h0c.662,2.2,5.452,13.891,6.115,16.092h-.028a2.187,2.187,0,0,1,.161.854,3.013,3.013,0,0,1-1.49,2.258,8.731,8.731,0,0,1-4.9,1.261,8.381,8.381,0,0,1-4.817-1.435,2.9,2.9,0,0,1-1.272-2.115A2.109,2.109,0,0,1,2344.159,196.928Z" transform="translate(-2335.941 -180.665)" fill="url(#linear-gradient)"/>
      <g id="Group_1135938" data-name="Group 1135938" transform="translate(8.132)" opacity="0.4">
        <g id="Group_1135937" data-name="Group 1135937" clip-path="url(#clip-path-2)">
          <g id="Group_1135936" data-name="Group 1135936" transform="translate(-4.773 -0.678)" style="mix-blend-mode: multiply;isolation: isolate">
            <path id="Path_1561620" data-name="Path 1561620" d="M2344.159,196.928l-.011,0,.029-.076c0-.011.009-.021.012-.033,6.118-16.152,6.119-16.152,6.119-16.152h0c.662,2.2,5.452,13.891,6.115,16.092h-.028a2.187,2.187,0,0,1,.161.854,3.013,3.013,0,0,1-1.49,2.258,8.731,8.731,0,0,1-4.9,1.261,8.381,8.381,0,0,1-4.817-1.435,2.9,2.9,0,0,1-1.272-2.115A2.109,2.109,0,0,1,2344.159,196.928Z" transform="translate(-2339.3 -179.987)" fill="#437fec"/>
            <path id="Path_1561621" data-name="Path 1561621" d="M2344.732,196.822l-.011,0,.031-.076c0-.011.009-.021.013-.032l6.448-16.144h0c.627,2.227,5.237,14.076,5.864,16.3h-.028a2.189,2.189,0,0,1,.147.862,3.024,3.024,0,0,1-1.54,2.246,8.663,8.663,0,0,1-4.957,1.18,8.3,8.3,0,0,1-4.822-1.531,2.9,2.9,0,0,1-1.241-2.151A2.126,2.126,0,0,1,2344.732,196.822Z" transform="translate(-2340.292 -179.951)" fill="#548bee" opacity="0.909"/>
            <path id="Path_1561622" data-name="Path 1561622" d="M2345.305,196.715l-.01,0c.01-.026.02-.049.032-.076,0-.011.009-.021.013-.032l6.778-16.136h0c.591,2.254,5.021,14.262,5.612,16.516h-.029a2.206,2.206,0,0,1,.134.871,3.049,3.049,0,0,1-1.591,2.232,8.731,8.731,0,0,1-5.011,1.1,8.357,8.357,0,0,1-4.826-1.627,2.923,2.923,0,0,1-1.211-2.187A2.149,2.149,0,0,1,2345.305,196.715Z" transform="translate(-2341.285 -179.914)" fill="#6596ef" opacity="0.818"/>
            <path id="Path_1561623" data-name="Path 1561623" d="M2345.878,196.609l-.01,0c.012-.026.022-.05.033-.076,0-.011.01-.021.014-.032,7.107-16.127,7.108-16.127,7.108-16.127h0c.556,2.279,4.805,14.448,5.361,16.727h-.029a2.2,2.2,0,0,1,.119.879,3.069,3.069,0,0,1-1.641,2.22,8.788,8.788,0,0,1-5.064,1.02,8.42,8.42,0,0,1-4.831-1.723,2.943,2.943,0,0,1-1.181-2.224A2.152,2.152,0,0,1,2345.878,196.609Z" transform="translate(-2342.278 -179.877)" fill="#76a2f1" opacity="0.727"/>
            <path id="Path_1561624" data-name="Path 1561624" d="M2346.451,196.5l-.011,0c.012-.026.023-.05.035-.076s.011-.021.015-.032l7.437-16.119h0c.521,2.305,4.589,14.634,5.11,16.939h-.03a2.24,2.24,0,0,1,.1.888,3.09,3.09,0,0,1-1.69,2.207,8.851,8.851,0,0,1-5.118.939,8.483,8.483,0,0,1-4.836-1.818,2.965,2.965,0,0,1-1.15-2.259A2.165,2.165,0,0,1,2346.451,196.5Z" transform="translate(-2343.269 -179.84)" fill="#87aef3" opacity="0.636"/>
            <path id="Path_1561625" data-name="Path 1561625" d="M2347.023,196.4l-.01,0,.036-.076c0-.011.01-.021.015-.032l7.767-16.111h0c.484,2.331,4.374,14.821,4.858,17.151l-.03,0a2.253,2.253,0,0,1,.091.9,3.116,3.116,0,0,1-1.741,2.195,8.921,8.921,0,0,1-5.171.859,8.545,8.545,0,0,1-4.84-1.914,2.985,2.985,0,0,1-1.121-2.3A2.177,2.177,0,0,1,2347.023,196.4Z" transform="translate(-2344.262 -179.803)" fill="#98b9f5" opacity="0.545"/>
            <path id="Path_1561626" data-name="Path 1561626" d="M2347.6,196.289l-.01,0,.038-.076c.005-.011.012-.021.016-.032l8.1-16.1h0c.45,2.357,4.158,15.006,4.607,17.362l-.031,0a2.249,2.249,0,0,1,.076.9,3.138,3.138,0,0,1-1.791,2.182,8.99,8.99,0,0,1-5.225.779,8.606,8.606,0,0,1-4.844-2.011,3.008,3.008,0,0,1-1.091-2.332A2.213,2.213,0,0,1,2347.6,196.289Z" transform="translate(-2345.254 -179.767)" fill="#aac5f6" opacity="0.455"/>
            <path id="Path_1561627" data-name="Path 1561627" d="M2348.168,196.182l-.011,0,.04-.076c0-.011.011-.021.017-.032l8.427-16.093h0c.414,2.382,3.941,15.192,4.355,17.574l-.03,0a2.3,2.3,0,0,1,.062.912,3.164,3.164,0,0,1-1.841,2.17,9.062,9.062,0,0,1-5.279.7,8.675,8.675,0,0,1-4.849-2.106,3.036,3.036,0,0,1-1.061-2.368A2.218,2.218,0,0,1,2348.168,196.182Z" transform="translate(-2346.245 -179.73)" fill="#bbd0f8" opacity="0.364"/>
            <path id="Path_1561628" data-name="Path 1561628" d="M2348.74,196.075l-.011,0,.041-.076c.005-.011.012-.021.017-.032l8.757-16.086h0c.378,2.408,3.726,15.378,4.1,17.786l-.031,0a2.3,2.3,0,0,1,.047.92,3.188,3.188,0,0,1-1.89,2.157,9.139,9.139,0,0,1-5.333.618,8.749,8.749,0,0,1-4.854-2.2,3.064,3.064,0,0,1-1.03-2.4A2.269,2.269,0,0,1,2348.74,196.075Z" transform="translate(-2347.236 -179.693)" fill="#ccdcfa" opacity="0.273"/>
            <path id="Path_1561629" data-name="Path 1561629" d="M2349.311,195.969l-.01,0,.042-.076c.005-.011.013-.021.018-.032l9.086-16.077h0c.344,2.434,3.51,15.563,3.853,18l-.031,0a2.319,2.319,0,0,1,.032.929,3.216,3.216,0,0,1-1.941,2.145,9.206,9.206,0,0,1-5.386.537,8.819,8.819,0,0,1-4.858-2.3,3.088,3.088,0,0,1-1-2.441A2.312,2.312,0,0,1,2349.311,195.969Z" transform="translate(-2348.226 -179.657)" fill="#dde8fc" opacity="0.182"/>
            <path id="Path_1561630" data-name="Path 1561630" d="M2349.883,195.862l-.011,0,.044-.076c.006-.011.013-.021.019-.032,9.415-16.069,9.416-16.068,9.416-16.068h0c.307,2.46,3.293,15.749,3.6,18.209l-.031,0a2.349,2.349,0,0,1,.019.937,3.242,3.242,0,0,1-1.991,2.132,9.291,9.291,0,0,1-5.439.457,8.9,8.9,0,0,1-4.863-2.393,3.117,3.117,0,0,1-.971-2.477A2.293,2.293,0,0,1,2349.883,195.862Z" transform="translate(-2349.218 -179.62)" fill="#eef3fd" opacity="0.091"/>
            <path id="Path_1561631" data-name="Path 1561631" d="M2350.455,195.756l-.011-.005.046-.076c.006-.011.014-.021.019-.031l9.746-16.061h0c.272,2.486,3.077,15.935,3.349,18.421l-.031,0a2.37,2.37,0,0,1,0,.945,3.279,3.279,0,0,1-2.041,2.12,9.5,9.5,0,0,1-5.494.376,9.121,9.121,0,0,1-4.868-2.49,3.153,3.153,0,0,1-.94-2.514A2.317,2.317,0,0,1,2350.455,195.756Z" transform="translate(-2350.209 -179.583)" fill="#fff" opacity="0"/>
          </g>
        </g>
      </g>
    </g>
  </g>
</svg>
