<svg xmlns="http://www.w3.org/2000/svg" width="82.635" height="74.334" viewBox="0 0 82.635 74.334"> <g id="api_1_" data-name="api (1)" transform="translate(-6.5 -32.078)"> <g id="Group_1137921" data-name="Group 1137921" transform="translate(7.5 33.078)"> <circle id="Ellipse_54009" data-name="Ellipse 54009" cx="4.462" cy="4.462" r="4.462" transform="translate(35.855 63.412)" fill="#44b4f5"></circle> <path id="Path_1563866" data-name="Path 1563866" d="M252.086,428.384A4.463,4.463,0,0,1,246,432.54a4.462,4.462,0,0,0,0-8.313,4.463,4.463,0,0,1,6.084,4.157Z" transform="translate(-207.307 -360.511)" fill="#1d9ee9"></path> <circle id="Ellipse_54010" data-name="Ellipse 54010" cx="3.65" cy="3.65" r="3.65" transform="translate(20.838 61.625)" fill="#ffeaa7"></circle> <path id="Path_1563867" data-name="Path 1563867" d="M154.971,416.567a3.65,3.65,0,0,1-3.65,3.65,3.61,3.61,0,0,1-1.379-.271,3.65,3.65,0,0,0,0-6.759,3.61,3.61,0,0,1,1.379-.271A3.651,3.651,0,0,1,154.971,416.567Z" transform="translate(-126.832 -351.291)" fill="#fcd232"></path> <path id="Path_1563868" data-name="Path 1563868" d="M3.65,0A3.65,3.65,0,1,1,0,3.65,3.65,3.65,0,0,1,3.65,0Z" transform="translate(52.495 61.625)" fill="#fddbbf"></path> <path id="Path_1563869" data-name="Path 1563869" d="M350.091,416.562a3.65,3.65,0,0,1-3.65,3.65,3.609,3.609,0,0,1-1.379-.271,3.65,3.65,0,0,0,0-6.759,3.609,3.609,0,0,1,1.379-.271A3.651,3.651,0,0,1,350.091,416.562Z" transform="translate(-290.296 -351.287)" fill="#fcd3b0"></path> <path id="Path_1563870" data-name="Path 1563870" d="M75.069,50.971a13.038,13.038,0,0,0-2.884.323.65.65,0,0,1-.786-.5,22.018,22.018,0,0,0-42.571-2.383.648.648,0,0,1-.874.4,14.729,14.729,0,1,0-5.725,28.3H74.9a13.067,13.067,0,1,0,.164-26.133Z" transform="translate(-7.501 -33.078)" fill="#dff6fd"></path> <path id="Path_1563871" data-name="Path 1563871" d="M415.237,156.527a13.173,13.173,0,0,1-13.231,12.968H397.95a13.068,13.068,0,0,0,2.2-25.975,13.056,13.056,0,0,1,15.087,13.007Z" transform="translate(-334.603 -125.469)" fill="#d8ecfe"></path> <path id="Path_1563872" data-name="Path 1563872" d="M144.874,172.5l-3.865-6.695a.649.649,0,0,0-1.124,0l-3.865,6.695a1.3,1.3,0,0,1-1.124.649h-14.88a1.947,1.947,0,0,0-1.947,1.947v20.537a1.947,1.947,0,0,0,1.947,1.947h40.863a1.947,1.947,0,0,0,1.947-1.947V175.091a1.947,1.947,0,0,0-1.947-1.947H146A1.3,1.3,0,0,1,144.874,172.5Z" transform="translate(-100.13 -143.995)" fill="#44b4f5"></path> <path id="Path_1563873" data-name="Path 1563873" d="M362.935,214.689v20.536a1.946,1.946,0,0,1-1.947,1.947h-4.056a1.946,1.946,0,0,0,1.947-1.947V214.689a1.946,1.946,0,0,0-1.947-1.947h4.056A1.946,1.946,0,0,1,362.935,214.689Z" transform="translate(-300.24 -183.593)" fill="#0883cb"></path> </g> <g id="Group_1137926" data-name="Group 1137926" transform="translate(7.5 33.078)"> <path id="Path_1563874" data-name="Path 1563874" d="M25.44,123.492H22.227a14.727,14.727,0,1,1,5.725-28.3.649.649,0,0,0,.874-.4,21.938,21.938,0,0,1,3.237-6.345" transform="translate(-7.5 -79.467)" fill="none" stroke="#fff" stroke-linecap="round" stroke-linejoin="round" stroke-miterlimit="10" stroke-width="2"></path> <path id="Path_1563875" data-name="Path 1563875" d="M183.082,37.957a22.017,22.017,0,0,1,35.411,12.835.649.649,0,0,0,.785.5A13.067,13.067,0,1,1,222,77.106h-4.708" transform="translate(-154.595 -33.08)" fill="none" stroke="#fff" stroke-linecap="round" stroke-linejoin="round" stroke-miterlimit="10" stroke-width="2"></path> <line id="Line_10329" data-name="Line 10329" y1="9.832" transform="translate(40.317 53.578)" fill="none" stroke="#fff" stroke-linecap="round" stroke-linejoin="round" stroke-miterlimit="10" stroke-width="2"></line> <circle id="Ellipse_54011" data-name="Ellipse 54011" cx="4.462" cy="4.462" r="4.462" transform="translate(35.856 63.411)" fill="none" stroke="#fff" stroke-linecap="round" stroke-linejoin="round" stroke-miterlimit="10" stroke-width="2"></circle> <path id="Path_1563876" data-name="Path 1563876" d="M158.442,371.366V367.8a.647.647,0,0,1,.227-.492l4.66-3.991" transform="translate(-133.953 -309.741)" fill="none" stroke="#fff" stroke-linecap="round" stroke-linejoin="round" stroke-miterlimit="10" stroke-width="2"></path> <circle id="Ellipse_54012" data-name="Ellipse 54012" cx="3.65" cy="3.65" r="3.65" transform="translate(20.839 61.625)" fill="none" stroke="#fff" stroke-linecap="round" stroke-linejoin="round" stroke-miterlimit="10" stroke-width="2"></circle> <path id="Path_1563877" data-name="Path 1563877" d="M323.442,363.32l4.66,3.991a.647.647,0,0,1,.227.492v3.563" transform="translate(-272.183 -309.741)" fill="none" stroke="#fff" stroke-linecap="round" stroke-linejoin="round" stroke-miterlimit="10" stroke-width="2"></path> <path id="Path_1563878" data-name="Path 1563878" d="M159.117,173.143h1.764a1.946,1.946,0,0,1,1.947,1.947v20.536a1.946,1.946,0,0,1-1.947,1.947H120.019a1.946,1.946,0,0,1-1.947-1.947V175.09a1.946,1.946,0,0,1,1.947-1.947H134.9a1.3,1.3,0,0,0,1.124-.649l3.866-6.7a.649.649,0,0,1,1.123,0l3.866,6.7a1.3,1.3,0,0,0,1.124.649h7.437" transform="translate(-100.133 -143.995)" fill="none" stroke="#fff" stroke-linecap="round" stroke-linejoin="round" stroke-miterlimit="10" stroke-width="2"></path> <circle id="Ellipse_54013" data-name="Ellipse 54013" cx="3.65" cy="3.65" r="3.65" transform="translate(52.495 61.625)" fill="none" stroke="#fff" stroke-linecap="round" stroke-linejoin="round" stroke-miterlimit="10" stroke-width="2"></circle> <g id="Group_1137925" data-name="Group 1137925" transform="translate(25.324 34.731)"> <g id="Group_1137922" data-name="Group 1137922"> <path id="Path_1563879" data-name="Path 1563879" d="M163.586,260.417l4.98-13.077a.3.3,0,0,1,.556,0l4.935,13.077" transform="translate(-163.586 -247.153)" fill="none" stroke="#fff" stroke-linecap="round" stroke-linejoin="round" stroke-miterlimit="10" stroke-width="2"></path> <line id="Line_10330" data-name="Line 10330" x2="7.39" transform="translate(1.553 10.007)" fill="none" stroke="#fff" stroke-linecap="round" stroke-linejoin="round" stroke-miterlimit="10" stroke-width="2"></line> </g> <g id="Group_1137923" data-name="Group 1137923" transform="translate(29.987 0)"> <line id="Line_10331" data-name="Line 10331" y2="13.264" fill="none" stroke="#fff" stroke-linecap="round" stroke-linejoin="round" stroke-miterlimit="10" stroke-width="2"></line> </g> <g id="Group_1137924" data-name="Group 1137924" transform="translate(16.475 0)"> <line id="Line_10332" data-name="Line 10332" y2="13.264" transform="translate(0)" fill="none" stroke="#fff" stroke-linecap="round" stroke-linejoin="round" stroke-miterlimit="10" stroke-width="2"></line> <path id="Path_1563880" data-name="Path 1563880" d="M272.641,250.9a3.806,3.806,0,0,1-3.816,3.743c-1.025,0-3.667.017-3.667.017s-.017-2.718-.017-3.76c0-.856-.009-3.743-.009-3.743h3.693A3.806,3.806,0,0,1,272.641,250.9Z" transform="translate(-265.131 -247.154)" fill="none" stroke="#fff" stroke-linecap="round" stroke-linejoin="round" stroke-miterlimit="10" stroke-width="2"></path> </g> </g> </g> </g> </svg>