<svg xmlns="http://www.w3.org/2000/svg" width="64.798" height="64.802" viewBox="0 0 64.798 64.802"> <g id="_x30_9_x2C__Rocket_x2C__startup_x2C__spring_swing_rocket_x2C__rocket_ship_x2C__rocket_launch_x2C__space_ship_x2C__boost_x2C__space_ship_launch" transform="translate(-1.007 -0.989)"> <g id="Group_1138118" data-name="Group 1138118" transform="translate(1.007 0.989)"> <g id="Group_1138116" data-name="Group 1138116" transform="translate(1.271 15.04)"> <path id="Path_1564141" data-name="Path 1564141" d="M20.635,335.809,28,339.35l4,7.823a9.228,9.228,0,0,1-2.4,4.159c-3.624,3.624-18.589,5.467-18.589,5.467s1.844-14.965,5.467-18.589A9.228,9.228,0,0,1,20.635,335.809Z" transform="translate(-11.009 -308.307)" fill="#44b4f5"></path> <path id="Path_1564142" data-name="Path 1564142" d="M54.221,134.651l-13.092-2.334L49.5,123.95a15.667,15.667,0,0,1,13.975-4.319l-2.028,9.242Z" transform="translate(-37.302 -119.361)" fill="#44b4f5"></path> <path id="Path_1564143" data-name="Path 1564143" d="M287.339,295.049a15.667,15.667,0,0,1-4.319,13.975l-8.367,8.367L272.319,304.3l5.17-7.857Z" transform="translate(-239.117 -272.726)" fill="#44b4f5"></path> </g> <path id="Path_1564144" data-name="Path 1564144" d="M121.894,238.839a29.158,29.158,0,0,1,16.324,16.324l-5.429,3.319a29.933,29.933,0,0,1-14.214-14.214l3.319-5.429Z" transform="translate(-103.637 -208.618)" fill="#5ad6ff"></path> <path id="Path_1564145" data-name="Path 1564145" d="M171.717,21.129a32.813,32.813,0,0,0-18.934,14.433L144.7,48.791l16.324,16.324c13.676-8.38,13.455-8.167,14.91-9.182A32.812,32.812,0,0,0,188.685,38.1Z" transform="translate(-126.442 -18.57)" fill="#44b4f5"></path> <circle id="Ellipse_54047" data-name="Ellipse 54047" cx="6.958" cy="6.958" r="6.958" transform="translate(34.222 16.664)" fill="#ffeaa7"></circle> <path id="Path_1564146" data-name="Path 1564146" d="M80.207,295.783l-3.279,7.654L58.339,284.848l7.654-3.279Z" transform="translate(-51.054 -245.919)" fill="#44b4f5"></path> <path id="Path_1564147" data-name="Path 1564147" d="M374.567,12.033a32.76,32.76,0,0,1-.259,17.228,24.776,24.776,0,0,1-16.969-16.969A32.76,32.76,0,0,1,374.567,12.033Z" transform="translate(-312.064 -9.734)" fill="#ffeaa7"></path> <g id="Group_1138117" data-name="Group 1138117" transform="translate(0 0)"> <path id="Path_1564148" data-name="Path 1564148" d="M268.575,122.137a8.229,8.229,0,1,0,8.229,8.229A8.225,8.225,0,0,0,268.575,122.137Zm0,13.917a5.688,5.688,0,1,1,5.688-5.688A5.686,5.686,0,0,1,268.575,136.054Z" transform="translate(-227.395 -106.744)" fill="#fff"></path> <path id="Path_1564149" data-name="Path 1564149" d="M64.74,2.974a1.27,1.27,0,0,0-.916-.916A34.127,34.127,0,0,0,27.872,14.921a16.926,16.926,0,0,0-14.3,4.8L5.206,28.087a1.271,1.271,0,0,0,.675,2.149c6.246,1.11,9.524,1.7,11.26,2.009l-2.069,3.386-7.281,3.12a1.271,1.271,0,0,0-.4,2.066l2.225,2.225a10.56,10.56,0,0,0-2.772,1.991c-1.678,1.678-3.17,5.473-4.436,11.281-.916,4.2-1.375,7.9-1.394,8.05a1.271,1.271,0,0,0,1.416,1.416c.155-.019,3.848-.479,8.051-1.394,5.808-1.266,9.6-2.758,11.281-4.436a10.564,10.564,0,0,0,1.992-2.772l2.225,2.225a1.271,1.271,0,0,0,2.066-.4l3.12-7.282,3.387-2.07,2.008,11.261a1.271,1.271,0,0,0,2.149.675l8.367-8.367a16.926,16.926,0,0,0,4.8-14.3A34.108,34.108,0,0,0,64.74,2.974ZM8.725,28.162l6.645-6.645a14.386,14.386,0,0,1,10.893-4.2l-7.7,12.6ZM19.968,58.155c-2.406,2.406-11.375,4.163-16.2,4.88.717-4.829,2.474-13.8,4.88-16.2a8.008,8.008,0,0,1,2.907-1.856L21.824,55.248A8.006,8.006,0,0,1,19.968,58.155Zm6.483-1.873L10.517,40.347l5.138-2.2,13,13Zm3.9-7.034-12.8-12.8,1.955-3.2L33.549,47.292Zm14.931,2.181-6.645,6.645-1.754-9.84,12.6-7.7a14.386,14.386,0,0,1-4.2,10.893ZM62.364,18.9a23.287,23.287,0,0,1-5.382-2.686,1.271,1.271,0,0,0-1.419,2.108,25.826,25.826,0,0,0,6.1,3.023A31.632,31.632,0,0,1,48.155,38.367L35.78,45.929,20.869,31.018c7.81-12.745,7.647-12.6,8.619-13.991A31.655,31.655,0,0,1,45.449,5.137a25.806,25.806,0,0,0,2.689,5.586,1.271,1.271,0,0,0,2.141-1.369,23.278,23.278,0,0,1-2.384-4.919,31.571,31.571,0,0,1,14.564-.094A31.572,31.572,0,0,1,62.364,18.9Z" transform="translate(-1.007 -0.989)" fill="#fff"></path> <circle id="Ellipse_54048" data-name="Ellipse 54048" cx="1.271" cy="1.271" r="1.271" transform="translate(50.094 11.755)" fill="#fff"></circle> </g> </g> </g> </svg>