<svg xmlns="http://www.w3.org/2000/svg" width="80.709" height="67.264" viewBox="0 0 80.709 67.264"> <g id="dashboard" transform="translate(-2.006 -7)"> <g id="Icon" transform="translate(3.343 8.16)"> <rect id="Rectangle_176664" data-name="Rectangle 176664" width="71.939" height="55.695" rx="2" transform="translate(5.624 0)" fill="#e6f3ff"></rect> <path id="Path_1564150" data-name="Path 1564150" d="M19.143,32A16.145,16.145,0,0,0,4.929,55.8l14.215-7.654Z" transform="translate(-3 0.472)" fill="#44b4f5"></path> <path id="Path_1564151" data-name="Path 1564151" d="M15,32V48.143H31.143A16.143,16.143,0,0,0,15,32Z" transform="translate(1.143 0.472)" fill="#ffeaa7"></path> <path id="Path_1564152" data-name="Path 1564152" d="M4.434,51.654A16.144,16.144,0,0,0,34.792,44H18.648Z" transform="translate(-2.505 4.615)" fill="#44b4f5"></path> <path id="Path_1564153" data-name="Path 1564153" d="M37.345,32h2.691a1.345,1.345,0,0,1,1.345,1.345V49.489H36V33.345A1.345,1.345,0,0,1,37.345,32Z" transform="translate(8.394 0.472)" fill="#44b4f5"></path> <path id="Path_1564154" data-name="Path 1564154" d="M44.345,29h2.691a1.345,1.345,0,0,1,1.345,1.345V50.524H43V30.345A1.345,1.345,0,0,1,44.345,29Z" transform="translate(10.811 -0.564)" fill="#44b4f5"></path> <path id="Path_1564155" data-name="Path 1564155" d="M51.345,35h2.691a1.345,1.345,0,0,1,1.345,1.345V48.453H50V36.345A1.345,1.345,0,0,1,51.345,35Z" transform="translate(13.228 1.508)" fill="#ffeaa7"></path> <circle id="Ellipse_54049" data-name="Ellipse 54049" cx="3.481" cy="3.481" r="3.481" transform="translate(0.983 22.046)" fill="#44b4f5"></circle> <circle id="Ellipse_54050" data-name="Ellipse 54050" cx="3.481" cy="3.481" r="3.481" transform="translate(14.907 9.282)" fill="#ffeaa7"></circle> <circle id="Ellipse_54051" data-name="Ellipse 54051" cx="3.481" cy="3.481" r="3.481" transform="translate(41.594 8.122)" fill="#ffeaa7"></circle> <ellipse id="Ellipse_54052" data-name="Ellipse 54052" cx="3.481" cy="2.901" rx="3.481" ry="2.901" transform="translate(26.51 20.885)" fill="#44b4f5"></ellipse> </g> <g id="Line" transform="translate(2.006 7)"> <path id="Path_1564156" data-name="Path 1564156" d="M75.988,56.775H73.3V46.013a2.691,2.691,0,0,0-2.691-2.691H67.917a2.691,2.691,0,0,0-2.691,2.691V56.775H63.881V37.941a2.691,2.691,0,0,0-2.691-2.691H58.5a2.691,2.691,0,0,0-2.691,2.691V56.775H54.464v-14.8a2.691,2.691,0,0,0-2.691-2.691H49.083a2.691,2.691,0,0,0-2.691,2.691v14.8a1.347,1.347,0,0,1-1.345-1.345V33.906a1.345,1.345,0,1,0-2.691,0V55.43a4.04,4.04,0,0,0,4.036,4.036h29.6a1.345,1.345,0,1,0,0-2.691Zm-26.906,0,0-14.8h2.693v14.8Zm9.417,0,0-18.834H61.19V56.775Zm9.417,0,0-10.762h2.693V56.775ZM61.19,16.417a1.345,1.345,0,0,1,1.345-1.345H74.643a1.345,1.345,0,0,1,0,2.691H62.536a1.345,1.345,0,0,1-1.345-1.345Zm-4.036,0A1.345,1.345,0,1,1,58.5,17.762,1.345,1.345,0,0,1,57.154,16.417ZM61.19,21.8a1.345,1.345,0,0,1,1.345-1.345H74.643a1.345,1.345,0,0,1,0,2.691H62.536A1.345,1.345,0,0,1,61.19,21.8Zm0,5.381a1.345,1.345,0,0,1,1.345-1.345H74.643a1.345,1.345,0,0,1,0,2.691H62.536a1.345,1.345,0,0,1-1.345-1.345ZM57.154,21.8A1.345,1.345,0,1,1,58.5,23.143,1.345,1.345,0,0,1,57.154,21.8Zm0,5.381A1.345,1.345,0,1,1,58.5,28.524,1.345,1.345,0,0,1,57.154,27.179ZM78.679,7H11.415a4.04,4.04,0,0,0-4.036,4.036V28.592a4.686,4.686,0,0,0,0,9.281v6.311A17.474,17.474,0,1,0,34.986,64.847H78.679a4.04,4.04,0,0,0,4.036-4.036V11.036A4.04,4.04,0,0,0,78.679,7ZM6.034,33.233a2.018,2.018,0,1,1,2.018,2.018A2.018,2.018,0,0,1,6.034,33.233Zm12.108,8.812V55.971l-12.266,6.6A14.786,14.786,0,0,1,18.141,42.045Zm2.691,0A14.813,14.813,0,0,1,34.217,55.43H20.832ZM19.487,71.573A14.792,14.792,0,0,1,7.158,64.942l12.669-6.822h14.39a14.813,14.813,0,0,1-14.73,13.453ZM80.024,60.811a1.347,1.347,0,0,1-1.345,1.345H36.119A17.462,17.462,0,0,0,10.07,42.062V37.469a4.7,4.7,0,0,0,2.691-4.236A4.652,4.652,0,0,0,12.28,31.2l6.807-6.051a4.716,4.716,0,0,0,4.225.321L29.24,30.15a4.706,4.706,0,1,0,8.7-.1l7.777-6.424a4.693,4.693,0,1,0-1.678-2.1l-7.809,6.451a4.711,4.711,0,0,0-5.318.064l-5.478-4.325a4.707,4.707,0,1,0-8.157-.561l-6.812,6.055c-.129-.078-.26-.15-.4-.216V11.036A1.347,1.347,0,0,1,11.415,9.69H78.679a1.347,1.347,0,0,1,1.345,1.345ZM22.931,22.552a2.018,2.018,0,1,1,0-2.854,2.018,2.018,0,0,1,0,2.854ZM35.039,33.315a2.018,2.018,0,1,1,0-2.854,2.018,2.018,0,0,1,0,2.854ZM46.983,18.353a2.018,2.018,0,1,1,0,2.854A2.018,2.018,0,0,1,46.983,18.353Z" transform="translate(-2.006 -7)" fill="#fff"></path> </g> </g> </svg>