<svg xmlns="http://www.w3.org/2000/svg" width="66.549" height="66.464" viewBox="0 0 66.549 66.464"> <g id="analysis" transform="translate(-2 -2)"> <g id="Group_1137782" data-name="Group 1137782" transform="translate(10.749 7.454)"> <g id="Group_1137773" data-name="Group 1137773" transform="translate(13.81)"> <path id="Path_1563705" data-name="Path 1563705" d="M44.552,12A21.843,21.843,0,0,1,51.8,34.272l-.055.065a14.149,14.149,0,0,0-8.214-3.1,12.66,12.66,0,0,0,.229-2.422,13.087,13.087,0,0,0-13.09-13.09,13.357,13.357,0,0,0-3.763.545L22.68,8.505A21.843,21.843,0,0,1,44.552,12Z" transform="translate(-22.68 -7)" fill="#35adf3"></path> </g> <g id="Group_1137774" data-name="Group 1137774" transform="translate(0.218 25.09)"> <path id="Path_1563706" data-name="Path 1563706" d="M16.263,42.032A21.636,21.636,0,0,1,10.22,30h8.9a13.092,13.092,0,0,0,10.494,9.632l.665.175a14.222,14.222,0,0,0,.535,8.672l-.109.044a21.741,21.741,0,0,1-14.443-6.491Z" transform="translate(-10.22 -30)" fill="#35adf3"></path> </g> <g id="Group_1137775" data-name="Group 1137775" transform="translate(0 3.447)"> <path id="Path_1563707" data-name="Path 1563707" d="M24.136,17.927a13.119,13.119,0,0,0-5.367,9.512H10.02A21.953,21.953,0,0,1,20.045,10.16Z" transform="translate(-10.02 -10.16)" fill="#fde6a5"></path> </g> <g id="Group_1137776" data-name="Group 1137776" transform="translate(41.486 45.533)"> <path id="Path_1563708" data-name="Path 1563708" d="M62.722,57.881s1.593,1.494-.655,3.883-3.829.895-3.829.895L48.694,53.7l-.644-.033a14.225,14.225,0,0,0,4.8-4.931l.316.2Z" transform="translate(-48.05 -48.74)" fill="#35adf3"></path> </g> <g id="Group_1137777" data-name="Group 1137777" transform="translate(19.841 24.225)"> <path id="Path_1563709" data-name="Path 1563709" d="M43.024,29.221a14.149,14.149,0,0,1,8.214,3.1,10.748,10.748,0,0,1,.851.731,14.169,14.169,0,0,1,2.564,17.465,14.225,14.225,0,0,1-4.8,4.931,14.181,14.181,0,1,1-6.829-26.224Z" transform="translate(-28.208 -29.208)" fill="#35adf3"></path> </g> <g id="Group_1137778" data-name="Group 1137778" transform="translate(23.887 28.282)"> <path id="Path_1563710" data-name="Path 1563710" d="M48.981,35.668a10.129,10.129,0,1,1-14.323.458A10.122,10.122,0,0,1,48.981,35.668Z" transform="translate(-31.918 -32.926)" fill="#fde6a5"></path> </g> <g id="Group_1137779" data-name="Group 1137779" transform="translate(31.613 6.545)"> <path id="Path_1563711" data-name="Path 1563711" d="M41.684,13.393a1.6,1.6,0,0,1,.589,1.244A1.636,1.636,0,1,1,40.636,13,1.557,1.557,0,0,1,41.684,13.393Z" transform="translate(-39 -13)" fill="#35adf3"></path> </g> <g id="Group_1137780" data-name="Group 1137780" transform="translate(7.614 32.726)"> <circle id="Ellipse_54001" data-name="Ellipse 54001" cx="1.636" cy="1.636" r="1.636" fill="#35adf3"></circle> </g> <g id="Group_1137781" data-name="Group 1137781" transform="translate(4.342 12)"> <circle id="Ellipse_54002" data-name="Ellipse 54002" cx="1.636" cy="1.636" r="1.636" fill="#fde6a5"></circle> </g> </g> <g id="Group_1137783" data-name="Group 1137783" transform="translate(2 2)"> <path id="Path_1563712" data-name="Path 1563712" d="M49.816,34.962a11.22,11.22,0,1,0-7.683,19.405c.123,0,.248,0,.371-.005a11.221,11.221,0,0,0,7.312-19.4ZM48.735,49.33a9.039,9.039,0,1,1-6.886-15.217c.1,0,.2,0,.3,0A9.039,9.039,0,0,1,48.735,49.33Z" transform="translate(0.628 0.719)" fill="#fff"></path> <path id="Path_1563713" data-name="Path 1563713" d="M50,10h5.454v2.182H50Z" transform="translate(2.362 -1.273)" fill="#fff"></path> <path id="Path_1563714" data-name="Path 1563714" d="M57,10h5.454v2.182H57Z" transform="translate(2.998 -1.273)" fill="#fff"></path> <path id="Path_1563715" data-name="Path 1563715" d="M50,14H63.09v2.182H50Z" transform="translate(2.362 -0.91)" fill="#fff"></path> <path id="Path_1563716" data-name="Path 1563716" d="M13.376,16.742A22.869,22.869,0,0,0,9.664,28.127l-.057,1.144H20.5l.083-1a11.982,11.982,0,0,1,4.921-8.718L26.272,19,21.184,9.339l-1,.643a22.928,22.928,0,0,0-5.4,4.836l-1.88-3.289V5.273H10.727v5.454H8.545V2H6.363v8.727H4.182V7.454H2v5.454h9.185Zm7-4.252,3.1,5.879A14.166,14.166,0,0,0,18.53,27.09h-6.6A20.7,20.7,0,0,1,14.606,18.9l.169.3a2.728,2.728,0,1,0,2.044-.819l-.86-1.5a20.739,20.739,0,0,1,4.418-4.379Zm-3.106,8.6a.545.545,0,1,1-.545-.545A.546.546,0,0,1,17.272,21.09Z" transform="translate(-2 -2)" fill="#fff"></path> <path id="Path_1563717" data-name="Path 1563717" d="M2,57H24.908v2.182H2Z" transform="translate(-2 2.998)" fill="#fff"></path> <path id="Path_1563718" data-name="Path 1563718" d="M2,53h8.727v2.182H2Z" transform="translate(-2 2.634)" fill="#fff"></path> <path id="Path_1563719" data-name="Path 1563719" d="M12,53H24v2.182H12Z" transform="translate(-1.091 2.634)" fill="#fff"></path> <path id="Path_1563720" data-name="Path 1563720" d="M67.008,60.972l-9.217-8.64a15.282,15.282,0,0,0-3.218-17.97c-.115-.108-.239-.2-.356-.3a22.772,22.772,0,0,0-6.982-22.124l2.682-3.756H66.81V6H48.795l-3.25,4.549A22.825,22.825,0,0,0,23.517,7.584l-1.148.452,5.23,9.632.849-.254A12.008,12.008,0,0,1,43.9,28.908a12.2,12.2,0,0,1-.084,1.341,15.206,15.206,0,0,0-14.175,10.44,11.987,11.987,0,0,1-9.363-8.78l-.211-.818H9.062l.189,1.253A22.758,22.758,0,0,0,14.8,44.107l-4.71,3.925v7.057h2.182V49.055l4.056-3.381a22.859,22.859,0,0,0,13.856,6.06A15.266,15.266,0,0,0,51.81,58.687l9.229,8.652a3.04,3.04,0,0,0,2.045.763,4.607,4.607,0,0,0,3.325-1.708c2.363-2.517,1.425-4.646.6-5.421ZM31.9,14.727a14.259,14.259,0,0,0-3.218.367l-3.2-5.9a20.666,20.666,0,0,1,18.8,3.129l-.23.323a2.759,2.759,0,1,0,1.708,1.36l.2-.285a20.623,20.623,0,0,1,6.334,18.886,15.182,15.182,0,0,0-6.3-2.24A14.034,14.034,0,0,0,31.9,14.727Zm12,.545a.545.545,0,1,1-.545-.545A.546.546,0,0,1,43.9,15.272ZM18.016,44.264l.337-.281a2.7,2.7,0,0,0,1,.2,2.754,2.754,0,1,0-2.541-1.757l-.347.289a20.6,20.6,0,0,1-4.834-9.44h6.769A14.174,14.174,0,0,0,29.1,42.8a15,15,0,0,0,.292,6.67,20.68,20.68,0,0,1-11.376-5.209Zm.8-2.811a.545.545,0,1,1,.545.545A.546.546,0,0,1,18.812,41.453Zm16.363,13.6a13.09,13.09,0,1,1,18.5-.6A13.009,13.009,0,0,1,35.175,55.053ZM64.819,64.9c-1.373,1.466-2.165.945-2.288.845L53.65,57.419a13.827,13.827,0,0,0,2.987-3.182l8.88,8.324C65.523,62.57,66.294,63.328,64.819,64.9Z" transform="translate(-1.358 -1.637)" fill="#fff"></path> </g> </g> </svg>