<svg xmlns="http://www.w3.org/2000/svg" width="64.765" height="64.937" viewBox="0 0 64.765 64.937"> <g id="Icons" transform="translate(-2.5 -2.167)"> <g id="Group_1138115" data-name="Group 1138115" transform="translate(2.5 2.167)"> <path id="Path_1564109" data-name="Path 1564109" d="M68.475,43.227V84.715a2.526,2.526,0,0,1-2.58,2.467H7.58A2.526,2.526,0,0,1,5,84.715V43.227Z" transform="translate(-4.355 -32.632)" fill="#e6f3ff"></path> <path id="Path_1564110" data-name="Path 1564110" d="M92.2,59.053V95.67H54.02V59.053a4.393,4.393,0,0,1,4.386-4.386h29.41A4.393,4.393,0,0,1,92.2,59.053Z" transform="translate(-40.726 -41.121)" fill="#afafaf"></path> <path id="Path_1564111" data-name="Path 1564111" d="M68.475,14.617H5V7.247a2.58,2.58,0,0,1,2.58-2.58H65.894a2.58,2.58,0,0,1,2.58,2.58Z" transform="translate(-4.355 -4.022)" fill="#44b4f5"></path> <circle id="Ellipse_54042" data-name="Ellipse 54042" cx="1.616" cy="1.616" r="1.616" transform="translate(4.591 4.005)" fill="#44b4f5"></circle> <circle id="Ellipse_54043" data-name="Ellipse 54043" cx="1.616" cy="1.616" r="1.616" transform="translate(11.904 4.005)" fill="#ffeaa7"></circle> <circle id="Ellipse_54044" data-name="Ellipse 54044" cx="1.616" cy="1.616" r="1.616" transform="translate(19.217 4.005)" fill="#efefef"></circle> <path id="Path_1564112" data-name="Path 1564112" d="M93.01,110.606H63.6a2.58,2.58,0,0,1-2.58-2.58V64.247a2.58,2.58,0,0,1,2.58-2.58H93.01a2.58,2.58,0,0,1,2.58,2.58v43.779A2.58,2.58,0,0,1,93.01,110.606Z" transform="translate(-45.92 -46.314)" fill="#44b4f5"></path> <path id="Path_1564113" data-name="Path 1564113" d="M110.256,66.182H95.29A1.29,1.29,0,0,1,94,64.892V61.667h17.546v3.225A1.29,1.29,0,0,1,110.256,66.182Z" transform="translate(-70.391 -46.314)" fill="#44b4f5"></path> <path id="Path_1564114" data-name="Path 1564114" d="M103.979,90.845V124.8a1.29,1.29,0,0,1-1.29,1.29H79.643a1.29,1.29,0,0,1-1.29-1.29V90.845a1.29,1.29,0,0,1,1.29-1.29h23.045A1.29,1.29,0,0,1,103.979,90.845Z" transform="translate(-58.781 -67.007)" fill="#efefef"></path> <path id="Path_1564115" data-name="Path 1564115" d="M220.85,156.028h-2.636a1.318,1.318,0,1,1,0-2.635h2.636a1.318,1.318,0,0,1,0,2.635Z" transform="translate(-161.577 -114.373)" fill="#72c2e9"></path> <path id="Path_1564116" data-name="Path 1564116" d="M211.924,180.927l-1.863-1.863a1.318,1.318,0,0,1,1.863-1.863l1.863,1.863a1.318,1.318,0,0,1-1.863,1.863Z" transform="translate(-156.218 -131.75)" fill="#ffeaa7"></path> <path id="Path_1564117" data-name="Path 1564117" d="M210.061,126.863a1.317,1.317,0,0,1,0-1.863l1.863-1.863A1.318,1.318,0,0,1,213.788,125l-1.863,1.863A1.317,1.317,0,0,1,210.061,126.863Z" transform="translate(-156.218 -91.636)" fill="#ffeaa7"></path> <path id="Path_1564118" data-name="Path 1564118" d="M19.993,154.56h2.635a1.318,1.318,0,0,1,0,2.635H19.993a1.318,1.318,0,0,1,0-2.635Z" transform="translate(-14.501 -115.239)" fill="#72c2e9"></path> <path id="Path_1564119" data-name="Path 1564119" d="M31.138,124.3,33,126.166a1.318,1.318,0,1,1-1.863,1.863l-1.863-1.863a1.318,1.318,0,1,1,1.863-1.863Z" transform="translate(-22.08 -92.502)" fill="#ffeaa7"></path> <path id="Path_1564120" data-name="Path 1564120" d="M33,178.367a1.317,1.317,0,0,1,0,1.863l-1.863,1.863a1.318,1.318,0,0,1-1.863-1.863l1.863-1.863A1.317,1.317,0,0,1,33,178.367Z" transform="translate(-22.08 -132.616)" fill="#ffeaa7"></path> <path id="Path_1564121" data-name="Path 1564121" d="M103.315,134.79,99.321,130.8a1.749,1.749,0,1,1,2.473-2.473l2.758,2.758,6.807-6.807a1.749,1.749,0,0,1,2.473,2.473l-8.044,8.044A1.749,1.749,0,0,1,103.315,134.79Z" transform="translate(-73.958 -92.387)" fill="#44b4f5"></path> <path id="Path_1564122" data-name="Path 1564122" d="M239.145,90.811a.645.645,0,0,1-.645-.645v-.774a.645.645,0,1,1,1.29,0v.774A.645.645,0,0,1,239.145,90.811Zm0-3.354a.645.645,0,0,1-.645-.645V51.372a.645.645,0,1,1,1.29,0v35.44A.645.645,0,0,1,239.145,87.457Z" transform="translate(-177.606 -38.197)" fill="#fff"></path> <path id="Path_1564123" data-name="Path 1564123" d="M13.145,90.811a.645.645,0,0,1-.645-.645V54.726a.645.645,0,1,1,1.29,0v35.44A.645.645,0,0,1,13.145,90.811Zm0-38.02a.645.645,0,0,1-.645-.645v-.774a.645.645,0,1,1,1.29,0v.774A.645.645,0,0,1,13.145,52.791Z" transform="translate(-9.92 -38.197)" fill="#fff"></path> <path id="Path_1564124" data-name="Path 1564124" d="M5.725,57.361H16.955v6.517A3.229,3.229,0,0,0,20.18,67.1h1.027a.645.645,0,1,0,0-1.29H20.174a1.937,1.937,0,0,1-1.93-1.935V20.1a1.937,1.937,0,0,1,1.935-1.935h5.284v2.58A1.937,1.937,0,0,0,27.4,22.68v1.391H23.362a1.937,1.937,0,0,0-1.935,1.935V59.959a1.937,1.937,0,0,0,1.935,1.935H46.408a1.937,1.937,0,0,0,1.935-1.935V26.006a1.937,1.937,0,0,0-1.935-1.935H42.365V22.68A1.937,1.937,0,0,0,44.3,20.745v-2.58h5.29A1.937,1.937,0,0,1,51.525,20.1V63.878a1.937,1.937,0,0,1-1.93,1.935H26.367a.645.645,0,1,0,0,1.29H49.59a3.229,3.229,0,0,0,3.225-3.225V57.361H64.039a3.174,3.174,0,0,0,3.225-3.11h0V23.083a.645.645,0,1,0-1.29,0V54.25a1.883,1.883,0,0,1-1.935,1.822H52.815V20.1a3.229,3.229,0,0,0-3.225-3.225H20.18A3.229,3.229,0,0,0,16.955,20.1V56.071H5.725A1.883,1.883,0,0,1,3.79,54.25V13.407H65.975v4.515a.645.645,0,0,0,1.29,0V5.392a3.229,3.229,0,0,0-3.225-3.225H5.725A3.229,3.229,0,0,0,2.5,5.392V54.25a3.174,3.174,0,0,0,3.225,3.112Zm40.682-32a.646.646,0,0,1,.645.645V59.959a.646.646,0,0,1-.645.645H23.362a.646.646,0,0,1-.645-.645V26.006a.646.646,0,0,1,.645-.645H27.4v1.577a1.937,1.937,0,0,0,1.935,1.935h11.1a1.937,1.937,0,0,0,1.935-1.935V25.36Zm-17.718,0H41.075v1.577a.646.646,0,0,1-.645.645h-11.1a.646.646,0,0,1-.645-.645Zm12.385-1.29H28.69V22.68H41.075Zm1.935-3.325a.646.646,0,0,1-.645.645H27.4a.646.646,0,0,1-.645-.645v-2.58H43.01ZM5.725,3.457H64.039a1.937,1.937,0,0,1,1.935,1.935v6.724H3.79V5.392A1.937,1.937,0,0,1,5.725,3.457Z" transform="translate(-2.5 -2.167)" fill="#fff"></path> <circle id="Ellipse_54045" data-name="Ellipse 54045" cx="0.645" cy="0.645" r="0.645" transform="translate(63.475 17.691)" fill="#fff"></circle> <path id="Path_1564125" data-name="Path 1564125" d="M20.053,19.708a2.261,2.261,0,1,0-2.261-2.261A2.263,2.263,0,0,0,20.053,19.708Zm0-3.231a.97.97,0,1,1-.97.97A.971.971,0,0,1,20.053,16.477Z" transform="translate(-13.846 -11.827)" fill="#fff"></path> <path id="Path_1564126" data-name="Path 1564126" d="M48.4,19.708a2.261,2.261,0,1,0-2.261-2.261A2.263,2.263,0,0,0,48.4,19.708Zm0-3.231a.97.97,0,1,1-.97.97A.971.971,0,0,1,48.4,16.477Z" transform="translate(-34.876 -11.827)" fill="#fff"></path> <path id="Path_1564127" data-name="Path 1564127" d="M76.739,19.708a2.261,2.261,0,1,0-2.261-2.261A2.263,2.263,0,0,0,76.739,19.708Zm0-3.231a.97.97,0,1,1-.97.97A.971.971,0,0,1,76.739,16.477Z" transform="translate(-55.906 -11.827)" fill="#fff"></path> <path id="Path_1564128" data-name="Path 1564128" d="M189.145,22.738H200.5a.645.645,0,1,0,0-1.29H189.145a.645.645,0,1,0,0,1.29Z" transform="translate(-140.507 -16.473)" fill="#fff"></path> <circle id="Ellipse_54046" data-name="Ellipse 54046" cx="0.645" cy="0.645" r="0.645" transform="translate(20.642 63.646)" fill="#fff"></circle> <path id="Path_1564129" data-name="Path 1564129" d="M220.958,152.856A1.965,1.965,0,0,0,219,150.893H216.36a1.963,1.963,0,1,0,0,3.926H219A1.965,1.965,0,0,0,220.958,152.856Zm-5.271,0a.673.673,0,0,1,.673-.673H219a.673.673,0,1,1,0,1.345H216.36A.673.673,0,0,1,215.687,152.856Z" transform="translate(-159.722 -112.518)" fill="#fff"></path> <path id="Path_1564130" data-name="Path 1564130" d="M212.387,179.531a1.965,1.965,0,0,0,0-2.776l-1.863-1.863a1.963,1.963,0,1,0-2.776,2.776l1.863,1.863A1.961,1.961,0,0,0,212.387,179.531Zm-3.727-2.776a.673.673,0,1,1,.951-.951l1.863,1.863a.673.673,0,0,1,0,.951.689.689,0,0,1-.951,0Z" transform="translate(-154.362 -129.898)" fill="#fff"></path> <path id="Path_1564131" data-name="Path 1564131" d="M210.524,125.463l1.864-1.863a1.963,1.963,0,0,0-2.776-2.776l-1.863,1.863a1.963,1.963,0,0,0,2.776,2.776ZM208.66,123.6l1.863-1.863a.673.673,0,0,1,.951.951l-1.863,1.863a.673.673,0,0,1-.951-.951Z" transform="translate(-154.362 -89.78)" fill="#fff"></path> <path id="Path_1564132" data-name="Path 1564132" d="M22.736,154.023a1.965,1.965,0,0,0-1.963-1.963H18.138a1.963,1.963,0,1,0,0,3.926h2.635A1.965,1.965,0,0,0,22.736,154.023Zm-5.271,0a.673.673,0,0,1,.673-.673h2.635a.673.673,0,0,1,0,1.345H18.138A.673.673,0,0,1,17.465,154.023Z" transform="translate(-12.646 -113.384)" fill="#fff"></path> <path id="Path_1564133" data-name="Path 1564133" d="M31.6,123.853l-1.863-1.863a1.963,1.963,0,1,0-2.776,2.776l1.863,1.863a1.963,1.963,0,0,0,2.776-2.776Zm-.912,1.863a.674.674,0,0,1-.951,0l-1.863-1.863a.673.673,0,0,1,.951-.951l1.863,1.863A.674.674,0,0,1,30.69,125.717Z" transform="translate(-20.224 -90.645)" fill="#fff"></path> <path id="Path_1564134" data-name="Path 1564134" d="M29.739,180.7l1.864-1.863a1.963,1.963,0,1,0-2.776-2.776l-1.863,1.863a1.963,1.963,0,0,0,2.775,2.776Zm-1.863-1.863,1.863-1.863a.673.673,0,0,1,.951.951l-1.864,1.863a.688.688,0,0,1-.951,0A.672.672,0,0,1,27.876,178.835Z" transform="translate(-20.224 -130.765)" fill="#fff"></path> <path id="Path_1564135" data-name="Path 1564135" d="M109.052,121.966l-6.351,6.351-2.3-2.3a2.394,2.394,0,0,0-3.385,3.385l3.995,3.995a2.4,2.4,0,0,0,3.383,0l0,0,.746-.746a.644.644,0,0,0,0-.911.659.659,0,0,0-.913,0l-.743.743,0,0a1.105,1.105,0,0,1-1.561,0l-3.995-3.995a1.1,1.1,0,0,1,1.561-1.561l2.758,2.758a.645.645,0,0,0,.912,0l6.807-6.807a1.1,1.1,0,0,1,1.561,1.561l0,0-3.649,3.648a.645.645,0,1,0,.913.911l3.648-3.648,0,0a2.394,2.394,0,0,0-3.388-3.382Z" transform="translate(-72.108 -90.535)" fill="#fff"></path> <path id="Path_1564136" data-name="Path 1564136" d="M123.113,185.445h-11.05a.645.645,0,1,0,0,1.29h11.05a.645.645,0,0,0,0-1.29Z" transform="translate(-83.314 -138.154)" fill="#fff"></path> <path id="Path_1564137" data-name="Path 1564137" d="M97.876,185.445h-1.35a.645.645,0,0,0,0,1.29h1.35a.645.645,0,0,0,0-1.29Z" transform="translate(-71.786 -138.154)" fill="#fff"></path> <path id="Path_1564138" data-name="Path 1564138" d="M123.113,200.739h-11.05a.645.645,0,1,0,0,1.29h11.05a.645.645,0,1,0,0-1.29Z" transform="translate(-83.314 -149.502)" fill="#fff"></path> <path id="Path_1564139" data-name="Path 1564139" d="M97.876,200.739h-1.35a.645.645,0,1,0,0,1.29h1.35a.645.645,0,0,0,0-1.29Z" transform="translate(-71.786 -149.502)" fill="#fff"></path> <path id="Path_1564140" data-name="Path 1564140" d="M134.424,155.162a.645.645,0,0,0,0-.911.659.659,0,0,0-.913,0,.645.645,0,1,0,.913.911Z" transform="translate(-99.567 -114.873)" fill="#fff"></path> </g> </g> </svg>