<svg xmlns="http://www.w3.org/2000/svg" width="73.402" height="68.056" viewBox="0 0 73.402 68.056"> <g id="optimization" transform="translate(0 -18.641)"> <g id="Group_1138119" data-name="Group 1138119" transform="translate(1.078 30.717)"> <path id="Path_1564157" data-name="Path 1564157" d="M8.238,102.877l-.719,1.34v37.418a4.471,4.471,0,0,0,4.471,4.471h50.3a4.471,4.471,0,0,0,4.471-4.471V104.217l-.719-1.34Z" transform="translate(-7.519 -102.877)" fill="#e6f3ff"></path> </g> <g id="Group_1138120" data-name="Group 1138120" transform="translate(1.078 30.717)"> <path id="Path_1564158" data-name="Path 1564158" d="M59.438,102.877v31.437a4.471,4.471,0,0,1-4.471,4.471H7.519v2.85a4.471,4.471,0,0,0,4.471,4.471h50.3a4.471,4.471,0,0,0,4.471-4.471V104.217l-.719-1.34Z" transform="translate(-7.519 -102.877)" fill="#d4eaff"></path> </g> <g id="Group_1138121" data-name="Group 1138121" transform="translate(1.078 19.719)"> <path id="Path_1564159" data-name="Path 1564159" d="M62.287,26.16h-50.3a4.471,4.471,0,0,0-4.471,4.471V38.5h59.24V30.631a4.471,4.471,0,0,0-4.471-4.471Z" transform="translate(-7.518 -26.16)" fill="#44b4f5"></path> </g> <g id="Group_1138122" data-name="Group 1138122" transform="translate(52.997 19.719)"> <path id="Path_1564160" data-name="Path 1564160" d="M372.522,26.16h-2.85V38.5h7.321V30.631A4.471,4.471,0,0,0,372.522,26.16Z" transform="translate(-369.672 -26.16)" fill="#4195ff"></path> </g> <g id="Group_1138125" data-name="Group 1138125" transform="translate(31.821 52.008)"> <g id="Group_1138123" data-name="Group 1138123"> <path id="Path_1564161" data-name="Path 1564161" d="M254.543,264.951h-2.881a13.212,13.212,0,0,0-1.487-3.588l2.038-2.038a1.032,1.032,0,0,0,0-1.46l-3.119-3.119a1.032,1.032,0,0,0-1.46,0l-2.038,2.038a13.208,13.208,0,0,0-3.588-1.487v-2.881a1.032,1.032,0,0,0-1.032-1.032h-4.412a1.032,1.032,0,0,0-1.032,1.032V255.3a13.209,13.209,0,0,0-3.588,1.487l-2.038-2.038a1.032,1.032,0,0,0-1.46,0l-3.119,3.119a1.032,1.032,0,0,0,0,1.46l2.038,2.038a13.21,13.21,0,0,0-1.487,3.588H223a1.032,1.032,0,0,0-1.032,1.032v4.412A1.032,1.032,0,0,0,223,271.427h2.881a13.209,13.209,0,0,0,1.487,3.588l-2.038,2.038a1.032,1.032,0,0,0,0,1.46l3.119,3.119a1.032,1.032,0,0,0,1.46,0l2.038-2.038a13.211,13.211,0,0,0,3.588,1.487v2.881A1.032,1.032,0,0,0,236.563,285h4.412a1.032,1.032,0,0,0,1.032-1.032v-2.881a13.211,13.211,0,0,0,3.588-1.487l2.038,2.038a1.032,1.032,0,0,0,1.46,0l3.119-3.119a1.032,1.032,0,0,0,0-1.46l-2.038-2.038a13.21,13.21,0,0,0,1.487-3.588h2.881a1.032,1.032,0,0,0,1.032-1.032v-4.412a1.032,1.032,0,0,0-1.032-1.032Zm-15.774,8.555a5.317,5.317,0,1,1,5.317-5.317A5.317,5.317,0,0,1,238.769,273.506Z" transform="translate(-221.963 -251.383)" fill="#ffeaa7"></path> </g> <g id="Group_1138124" data-name="Group 1138124" transform="translate(9.085 3.06)"> <path id="Path_1564162" data-name="Path 1564162" d="M308.827,283.238h-2.882a13.2,13.2,0,0,0-1.487-3.587l2.038-2.038a1.032,1.032,0,0,0,0-1.46l-3.119-3.119a1.032,1.032,0,0,0-1.46,0l-2.039,2.039a13.216,13.216,0,0,0-3.636-1.5,13.291,13.291,0,0,1-10.91,23.72,13.25,13.25,0,0,0,4.483,2.076v2.882a1.032,1.032,0,0,0,1.032,1.032h4.412a1.032,1.032,0,0,0,1.032-1.032v-2.881a13.211,13.211,0,0,0,3.588-1.487l2.038,2.038a1.032,1.032,0,0,0,1.46,0L306.5,296.8a1.032,1.032,0,0,0,0-1.46l-2.038-2.038a13.209,13.209,0,0,0,1.487-3.588h2.881a1.032,1.032,0,0,0,1.032-1.032v-4.412A1.033,1.033,0,0,0,308.827,283.238Z" transform="translate(-285.332 -272.73)" fill="#fbde82"></path> </g> </g> <g id="Group_1138130" data-name="Group 1138130" transform="translate(55.251 35.737)"> <g id="Group_1138127" data-name="Group 1138127"> <g id="Group_1138126" data-name="Group 1138126"> <path id="Path_1564163" data-name="Path 1564163" d="M402.13,147.967l-1.382-.565a6.846,6.846,0,0,0-.01-2.013l1.377-.578a.535.535,0,0,0,.286-.7L401.516,142a.535.535,0,0,0-.7-.286l-1.377.578a6.851,6.851,0,0,0-1.43-1.417l.565-1.382a.535.535,0,0,0-.293-.7l-2.117-.865a.535.535,0,0,0-.7.293l-.565,1.382a6.848,6.848,0,0,0-2.013.01l-.578-1.377a.535.535,0,0,0-.7-.286l-2.108.885a.535.535,0,0,0-.286.7l.578,1.377a6.85,6.85,0,0,0-1.417,1.43l-1.382-.565a.535.535,0,0,0-.7.293l-.865,2.117a.535.535,0,0,0,.293.7l1.382.565a6.848,6.848,0,0,0,.01,2.013l-1.377.578a.535.535,0,0,0-.286.7l.885,2.108a.535.535,0,0,0,.7.286l1.377-.578a6.85,6.85,0,0,0,1.43,1.417l-.565,1.382a.535.535,0,0,0,.293.7l2.117.865a.535.535,0,0,0,.7-.293l.565-1.382a6.848,6.848,0,0,0,2.013-.01l.578,1.377a.535.535,0,0,0,.7.286l2.108-.885a.535.535,0,0,0,.286-.7l-.578-1.377a6.849,6.849,0,0,0,1.417-1.43l1.382.565a.535.535,0,0,0,.7-.293l.865-2.117A.535.535,0,0,0,402.13,147.967Zm-9.246,1.013a2.756,2.756,0,1,1,3.594-1.509A2.756,2.756,0,0,1,392.884,148.981Z" transform="translate(-385.39 -137.893)" fill="#ffeaa7"></path> </g> </g> <g id="Group_1138129" data-name="Group 1138129" transform="translate(2.711 2.97)"> <g id="Group_1138128" data-name="Group 1138128"> <path id="Path_1564164" data-name="Path 1564164" d="M418.331,165.713l-1.383-.565a6.84,6.84,0,0,0-.01-2.013l1.378-.579a.535.535,0,0,0,.286-.7l-.885-2.108a.535.535,0,0,0-.7-.286l-1.378.579a6.847,6.847,0,0,0-1.451-1.432,6.889,6.889,0,0,1-9.885,9.243,6.87,6.87,0,0,0,1.744,1.875l-.565,1.383a.535.535,0,0,0,.293.7l2.117.865a.535.535,0,0,0,.7-.293l.565-1.382a6.848,6.848,0,0,0,2.013-.01l.578,1.377a.535.535,0,0,0,.7.286l2.108-.885a.535.535,0,0,0,.286-.7l-.578-1.377a6.851,6.851,0,0,0,1.417-1.43l1.382.565a.535.535,0,0,0,.7-.293l.865-2.117A.535.535,0,0,0,418.331,165.713Z" transform="translate(-404.302 -158.608)" fill="#fbde82"></path> </g> </g> </g> <g id="Group_1138131" data-name="Group 1138131" transform="translate(0 18.641)"> <path id="Path_1564165" data-name="Path 1564165" d="M46,57.206A2.006,2.006,0,1,0,48,55.2,2.006,2.006,0,0,0,46,57.206Z" transform="translate(-39.403 -49.959)" fill="#fff"></path> <circle id="Ellipse_54053" data-name="Ellipse 54053" cx="2.006" cy="2.006" r="2.006" transform="translate(12.764 5.241)" fill="#fff"></circle> <circle id="Ellipse_54054" data-name="Ellipse 54054" cx="2.006" cy="2.006" r="2.006" transform="translate(18.935 5.241)" fill="#fff"></circle> <path id="Path_1564166" data-name="Path 1564166" d="M124.364,172.424a1.078,1.078,0,0,0,1-.68l6-15.073a1.078,1.078,0,1,0-2-.8l-6,15.073a1.078,1.078,0,0,0,1,1.477Z" transform="translate(-105.612 -135.618)" fill="#44b4f5"></path> <path id="Path_1564167" data-name="Path 1564167" d="M209.158,175.875a1.077,1.077,0,0,0,1.473-.392l4.026-6.95a1.078,1.078,0,0,0-.01-1.1l-4.026-6.678a1.078,1.078,0,1,0-1.846,1.113l3.7,6.132-3.706,6.4A1.078,1.078,0,0,0,209.158,175.875Z" transform="translate(-178.712 -139.937)" fill="#44b4f5"></path> <path id="Path_1564168" data-name="Path 1564168" d="M58.505,174.4,54.8,168l3.7-6.132a1.078,1.078,0,0,0-1.846-1.113l-4.026,6.678a1.078,1.078,0,0,0-.01,1.1l4.026,6.95a1.078,1.078,0,0,0,1.866-1.081Z" transform="translate(-44.947 -139.937)" fill="#44b4f5"></path> <path id="Path_1564169" data-name="Path 1564169" d="M306.407,330.417a1.078,1.078,0,0,0-1.272.84,4.24,4.24,0,1,1-1.343-4.03,1.078,1.078,0,0,0,1.43-1.614,6.394,6.394,0,1,0,2.026,6.075,1.078,1.078,0,0,0-.84-1.272Z" transform="translate(-252.355 -280.229)" fill="#fff"></path> <path id="Path_1564170" data-name="Path 1564170" d="M423.465,170.98a3.834,3.834,0,0,0-4.984,5.034,3.761,3.761,0,0,0,2.085,2.065,3.9,3.9,0,0,0,5-2.1A3.981,3.981,0,0,0,423.465,170.98Zm-1.45,5.233a1.681,1.681,0,1,1,1.681-1.681A1.681,1.681,0,0,1,422.016,176.213Z" transform="translate(-358.228 -148.896)" fill="#fff"></path> <path id="Path_1564171" data-name="Path 1564171" d="M72.4,44.814l-.648-.265q.011-.315,0-.629l.645-.271a1.615,1.615,0,0,0,.863-2.112L72.37,39.43a1.642,1.642,0,0,0-2.112-.863l-.645.271q-.215-.23-.447-.443l.264-.647a1.684,1.684,0,0,0-.883-2.1l-2.117-.865a1.684,1.684,0,0,0-2.1.883l-.265.648q-.314-.011-.629,0l-.271-.645a1.61,1.61,0,0,0-1.767-.963V24.19a5.555,5.555,0,0,0-5.549-5.549H53.588a1.078,1.078,0,0,0,0,2.156h2.259A3.4,3.4,0,0,1,59.24,24.19v6.79H2.156V24.19A3.4,3.4,0,0,1,5.549,20.8H48.574a1.078,1.078,0,1,0,0-2.156H5.549A5.555,5.555,0,0,0,0,24.19V69.475a5.555,5.555,0,0,0,5.549,5.549H9.6a1.078,1.078,0,0,0,0-2.156H5.549a3.4,3.4,0,0,1-3.393-3.393V33.135H59.24v2.431l-.3.125A1.615,1.615,0,0,0,58.08,37.8l.271.645q-.23.215-.443.447l-.648-.265a1.615,1.615,0,0,0-2.1.883l-.864,2.117a1.684,1.684,0,0,0,.883,2.1l.647.265q-.011.315,0,.629l-.645.271a1.642,1.642,0,0,0-.863,2.112l.885,2.108a1.642,1.642,0,0,0,2.112.863l.645-.271q.215.23.447.443l-.265.648a1.615,1.615,0,0,0,.883,2.1l.213.087v1.262a2.109,2.109,0,0,0-2.511.356l-1.461,1.461a14.272,14.272,0,0,0-2.325-.964V53.04a2.113,2.113,0,0,0-2.11-2.11H46.422a2.113,2.113,0,0,0-2.11,2.11v2.066a14.283,14.283,0,0,0-2.325.964l-1.461-1.461a2.113,2.113,0,0,0-2.984,0l-3.119,3.119a2.113,2.113,0,0,0,0,2.984l1.461,1.461A14.275,14.275,0,0,0,34.92,64.5H32.854a2.113,2.113,0,0,0-2.11,2.11v4.412a2.112,2.112,0,0,0,1.094,1.848H14.576a1.078,1.078,0,0,0,0,2.156H35.67c.069.144.139.289.213.431l-1.461,1.461a2.11,2.11,0,0,0,0,2.984l3.119,3.12a2.112,2.112,0,0,0,2.984,0l1.461-1.461a14.282,14.282,0,0,0,2.325.964v2.066a2.113,2.113,0,0,0,2.11,2.11h4.411a2.113,2.113,0,0,0,2.11-2.11V82.522a14.271,14.271,0,0,0,2.325-.964l1.461,1.461a2.11,2.11,0,0,0,2.984,0L62.833,79.9a2.11,2.11,0,0,0,0-2.985l-1.461-1.461a14.273,14.273,0,0,0,.964-2.325H64.4a2.113,2.113,0,0,0,2.11-2.11V66.608A2.113,2.113,0,0,0,64.4,64.5H62.335a14.28,14.28,0,0,0-.964-2.325l1.462-1.461a2.113,2.113,0,0,0,0-2.984L61.4,56.291V53.847a1.673,1.673,0,0,0,1.851-.961l.265-.648q.314.011.629,0l.271.645a1.615,1.615,0,0,0,2.112.862l2.108-.885a1.642,1.642,0,0,0,.863-2.112l-.271-.645q.23-.215.443-.447l.648.265a1.684,1.684,0,0,0,2.1-.883l.865-2.117a1.616,1.616,0,0,0-.883-2.1ZM61.52,66.654h2.836v4.321H61.52a1.078,1.078,0,0,0-1.046.816,12.126,12.126,0,0,1-1.366,3.3,1.078,1.078,0,0,0,.162,1.317l2.006,2.006-3.055,3.055-2.006-2.006A1.078,1.078,0,0,0,54.9,79.3a12.133,12.133,0,0,1-3.3,1.366,1.078,1.078,0,0,0-.816,1.046v2.836H46.467V81.707a1.078,1.078,0,0,0-.816-1.046,12.127,12.127,0,0,1-3.3-1.366,1.078,1.078,0,0,0-1.317.162l-2.006,2.006-3.055-3.055L37.983,76.4a1.078,1.078,0,0,0,.162-1.317,12.128,12.128,0,0,1-1.366-3.3,1.078,1.078,0,0,0-1.046-.816H32.9V66.654h2.836a1.078,1.078,0,0,0,1.046-.816,12.127,12.127,0,0,1,1.366-3.3,1.078,1.078,0,0,0-.162-1.317L35.978,59.22l3.055-3.055,2.006,2.006a1.078,1.078,0,0,0,1.317.162,12.13,12.13,0,0,1,3.3-1.366,1.078,1.078,0,0,0,.816-1.046V53.086h4.321v2.836a1.078,1.078,0,0,0,.816,1.046,12.133,12.133,0,0,1,3.3,1.366,1.078,1.078,0,0,0,1.317-.162l2.006-2.006,3.055,3.055-2.006,2.006a1.078,1.078,0,0,0-.162,1.317,12.127,12.127,0,0,1,1.366,3.3,1.078,1.078,0,0,0,1.046.816Zm9.107-18.937-.88-.359a1.078,1.078,0,0,0-1.277.36,5.774,5.774,0,0,1-1.194,1.205,1.078,1.078,0,0,0-.348,1.28l.368.877-1.108.465-.368-.877a1.078,1.078,0,0,0-1.158-.648,5.76,5.76,0,0,1-1.7.009,1.077,1.077,0,0,0-1.151.659l-.359.88-1.112-.454.36-.88a1.078,1.078,0,0,0-.36-1.277,5.771,5.771,0,0,1-1.205-1.194,1.078,1.078,0,0,0-1.28-.348l-.877.368-.465-1.108.877-.368a1.078,1.078,0,0,0,.648-1.158,5.77,5.77,0,0,1-.009-1.7,1.078,1.078,0,0,0-.659-1.151l-.88-.36.454-1.112.88.36a1.078,1.078,0,0,0,1.277-.36A5.776,5.776,0,0,1,60.3,39.626a1.078,1.078,0,0,0,.348-1.28l-.368-.877L61.386,37l.368.877a1.078,1.078,0,0,0,1.157.648,5.77,5.77,0,0,1,1.7-.009,1.078,1.078,0,0,0,1.151-.659l.359-.88,1.112.454-.359.88a1.078,1.078,0,0,0,.36,1.277,5.765,5.765,0,0,1,1.205,1.194,1.077,1.077,0,0,0,1.28.348l.877-.368.465,1.108-.877.368a1.078,1.078,0,0,0-.648,1.158,5.776,5.776,0,0,1,.009,1.7,1.078,1.078,0,0,0,.659,1.151l.88.36Z" transform="translate(0 -18.641)" fill="#fff"></path> </g> </g> </svg>