<svg id="Group_1137919" data-name="Group 1137919" xmlns="http://www.w3.org/2000/svg" width="77.578" height="68.373" viewBox="0 0 77.578 68.373"> <g id="Group_1137790" data-name="Group 1137790" transform="translate(20.603 64.317)"> <g id="Group_1137789" data-name="Group 1137789"> <path id="Path_1563807" data-name="Path 1563807" d="M93.8,227.451H69.653a1.649,1.649,0,1,0,0,3.3H93.8a1.649,1.649,0,0,0,0-3.3Z" transform="translate(-68.004 -227.451)" fill="#edf4fc"></path> </g> </g> <g id="Group_1137792" data-name="Group 1137792" transform="translate(27.66 56.759)"> <g id="Group_1137791" data-name="Group 1137791"> <path id="Path_1563808" data-name="Path 1563808" d="M91.294,202.5h13.334v7.558H91.294Z" transform="translate(-91.294 -202.504)" fill="#c7d7e5"></path> </g> </g> <g id="Group_1137794" data-name="Group 1137794" transform="translate(51.893 31.472)"> <g id="Group_1137793" data-name="Group 1137793" transform="translate(0 0)"> <path id="Path_1563809" data-name="Path 1563809" d="M189.823,119.039H174.594a3.326,3.326,0,0,0-3.316,3.316v29.511a3.326,3.326,0,0,0,3.316,3.316h15.229a3.326,3.326,0,0,0,3.316-3.316V122.355A3.326,3.326,0,0,0,189.823,119.039Z" transform="translate(-171.278 -119.039)" fill="#44b4f5"></path> </g> </g> <g id="Group_1137796" data-name="Group 1137796" transform="translate(0.757 5.703)"> <g id="Group_1137795" data-name="Group 1137795"> <path id="Path_1563810" data-name="Path 1563810" d="M53.635,63.071a3.326,3.326,0,0,1,3.316-3.316H69.638V37.507a3.532,3.532,0,0,0-3.521-3.521H6.021A3.532,3.532,0,0,0,2.5,37.507V81.521a3.532,3.532,0,0,0,3.521,3.521H53.635Z" transform="translate(-2.5 -33.986)" fill="#44b4f5"></path> </g> </g> <g id="Group_1137798" data-name="Group 1137798" transform="translate(0.757 47.37)"> <g id="Group_1137797" data-name="Group 1137797"> <path id="Path_1563811" data-name="Path 1563811" d="M53.635,171.512H2.5v5.869A3.532,3.532,0,0,0,6.021,180.9H53.635Z" transform="translate(-2.5 -171.512)" fill="#edf4fc"></path> </g> </g> <g id="Group_1137800" data-name="Group 1137800" transform="translate(32.59 50.327)"> <g id="Group_1137799" data-name="Group 1137799"> <path id="Path_1563812" data-name="Path 1563812" d="M109.3,181.275a1.737,1.737,0,1,0,1.737,1.737A1.737,1.737,0,0,0,109.3,181.275Z" transform="translate(-107.567 -181.275)" fill="#c7d7e5"></path> </g> </g> <g id="Group_1137802" data-name="Group 1137802" transform="translate(3.692 8.637)"> <g id="Group_1137801" data-name="Group 1137801"> <path id="Path_1563813" data-name="Path 1563813" d="M60.386,69.822A3.326,3.326,0,0,1,63.7,66.505h9.753V44.258a.589.589,0,0,0-.587-.587h-60.1a.589.589,0,0,0-.587.587V82.4h48.2Z" transform="translate(-12.185 -43.671)" fill="#edf4fc"></path> </g> </g> <g id="Group_1137805" data-name="Group 1137805" transform="translate(3.692 34.387)"> <g id="Group_1137804" data-name="Group 1137804" transform="translate(0 0)"> <g id="Group_1137803" data-name="Group 1137803"> <path id="Path_1563814" data-name="Path 1563814" d="M54.394,135.739V128.66H50.152v7.079a1.4,1.4,0,0,1-1.4,1.4H37.317a1.4,1.4,0,0,1-1.4-1.4V128.66H31.368v7.079a1.4,1.4,0,0,1-1.4,1.4H18.533a1.4,1.4,0,0,1-1.4-1.4V128.66H12.185v12.983h48.2v-4.5H55.8A1.4,1.4,0,0,1,54.394,135.739Z" transform="translate(-12.185 -128.66)" fill="#44b4f5"></path> </g> </g> </g> <g id="Group_1137807" data-name="Group 1137807" transform="translate(54.807 34.387)"> <g id="Group_1137806" data-name="Group 1137806" transform="translate(0 0)"> <path id="Path_1563815" data-name="Path 1563815" d="M195.958,128.66h-3.412a1.154,1.154,0,0,0-1.076.718,2.749,2.749,0,0,1-5.111,0,1.154,1.154,0,0,0-1.076-.718h-3.412a.972.972,0,0,0-.973.973V158a.972.972,0,0,0,.973.973h14.087a.972.972,0,0,0,.973-.973V129.633a.973.973,0,0,0-.973-.973Z" transform="translate(-180.899 -128.66)" fill="#edf4fc"></path> </g> </g> <g id="Group_1137809" data-name="Group 1137809" transform="translate(54.807 42.567)"> <g id="Group_1137808" data-name="Group 1137808"> <path id="Path_1563816" data-name="Path 1563816" d="M191.685,155.662a2.727,2.727,0,0,1-5.453,0H180.9v21.161a.973.973,0,0,0,.973.973h14.087a.972.972,0,0,0,.973-.973V155.662Z" transform="translate(-180.899 -155.662)" fill="#70d6f9"></path> </g> </g> <g id="Group_1137811" data-name="Group 1137811" transform="translate(57.358 48.005)"> <g id="Group_1137810" data-name="Group 1137810"> <path id="Path_1563817" data-name="Path 1563817" d="M191.016,177.008h7.532a1.7,1.7,0,0,0,0-3.4h-7.532a1.7,1.7,0,1,0,0,3.4Z" transform="translate(-189.317 -173.609)" fill="#fcdd86"></path> </g> </g> <g id="Group_1137813" data-name="Group 1137813" transform="translate(57.358 54.238)"> <g id="Group_1137812" data-name="Group 1137812"> <path id="Path_1563818" data-name="Path 1563818" d="M198.548,194.182h-7.532a1.7,1.7,0,0,0,0,3.4h7.532a1.7,1.7,0,1,0,0-3.4Z" transform="translate(-189.316 -194.182)" fill="#fcdd86"></path> </g> </g> <g id="Group_1137815" data-name="Group 1137815" transform="translate(60.14 39.841)"> <g id="Group_1137814" data-name="Group 1137814"> <circle id="Ellipse_54005" data-name="Ellipse 54005" cx="2.727" cy="2.727" r="2.727" fill="#fcdd86"></circle> </g> </g> <g id="Group_1137817" data-name="Group 1137817" transform="translate(57.358 48.005)"> <g id="Group_1137816" data-name="Group 1137816"> <path id="Path_1563819" data-name="Path 1563819" d="M192.705,173.609h-1.689a1.7,1.7,0,1,0,0,3.4h1.689Z" transform="translate(-189.317 -173.609)" fill="#edb311"></path> </g> </g> <g id="Group_1137819" data-name="Group 1137819" transform="translate(57.358 54.238)"> <g id="Group_1137818" data-name="Group 1137818"> <path id="Path_1563820" data-name="Path 1563820" d="M192.705,194.182h-1.689a1.7,1.7,0,0,0,0,3.4h1.689Z" transform="translate(-189.317 -194.182)" fill="#edb311"></path> </g> </g> <g id="Group_1137821" data-name="Group 1137821" transform="translate(8.635 27.116)"> <g id="Group_1137820" data-name="Group 1137820"> <path id="Path_1563821" data-name="Path 1563821" d="M41.335,104.662H29.9a1.4,1.4,0,0,0-1.4,1.4v12.945a1.4,1.4,0,0,0,1.4,1.4H41.335a1.4,1.4,0,0,0,1.4-1.4V106.067A1.4,1.4,0,0,0,41.335,104.662Z" transform="translate(-28.5 -104.662)" fill="#fcdd86"></path> </g> </g> <g id="Group_1137823" data-name="Group 1137823" transform="translate(45.9 27.116)"> <g id="Group_1137822" data-name="Group 1137822"> <path id="Path_1563822" data-name="Path 1563822" d="M157.492,112.334a3.326,3.326,0,0,1,3.316-3.316h4.931v-2.951a1.4,1.4,0,0,0-1.4-1.4H152.9a1.4,1.4,0,0,0-1.4,1.4v12.945a1.4,1.4,0,0,0,1.4,1.4h4.587v-8.082Z" transform="translate(-151.5 -104.662)" fill="#fcdd86"></path> </g> </g> <g id="Group_1137825" data-name="Group 1137825" transform="translate(27.419 27.116)"> <g id="Group_1137824" data-name="Group 1137824"> <path id="Path_1563823" data-name="Path 1563823" d="M103.335,104.662H91.9a1.4,1.4,0,0,0-1.4,1.4v12.945a1.4,1.4,0,0,0,1.4,1.4h11.431a1.4,1.4,0,0,0,1.4-1.4V106.067A1.4,1.4,0,0,0,103.335,104.662Z" transform="translate(-90.5 -104.662)" fill="#fcdd86"></path> </g> </g> <g id="Group_1137827" data-name="Group 1137827" transform="translate(22.213 19.57)"> <g id="Group_1137826" data-name="Group 1137826"> <path id="Path_1563824" data-name="Path 1563824" d="M75.016,83.156H96.182a1.7,1.7,0,0,0,0-3.4H75.016a1.7,1.7,0,0,0,0,3.4Z" transform="translate(-73.317 -79.757)" fill="#fcdd86"></path> </g> </g> <g id="Group_1137829" data-name="Group 1137829" transform="translate(56.201 11.664)"> <g id="Group_1137828" data-name="Group 1137828"> <circle id="Ellipse_54006" data-name="Ellipse 54006" cx="2.727" cy="2.727" r="2.727" fill="#fcdd86"></circle> </g> </g> <g id="Group_1137831" data-name="Group 1137831" transform="translate(22.213 19.57)"> <g id="Group_1137830" data-name="Group 1137830"> <path id="Path_1563825" data-name="Path 1563825" d="M77.008,79.757H75.016a1.7,1.7,0,0,0,0,3.4h1.992Z" transform="translate(-73.317 -79.757)" fill="#edb311"></path> </g> </g> <g id="Group_1137834" data-name="Group 1137834" transform="translate(8.635 12.876)"> <g id="Group_1137833" data-name="Group 1137833"> <g id="Group_1137832" data-name="Group 1137832"> <path id="Path_1563826" data-name="Path 1563826" d="M33.561,60.692H30.015a1.515,1.515,0,0,1,0-3.03h3.547a1.515,1.515,0,1,1,0,3.03Z" transform="translate(-28.5 -57.662)" fill="#fcdd86"></path> </g> </g> </g> <g id="Group_1137836" data-name="Group 1137836" transform="translate(71.964 23.597)"> <g id="Group_1137835" data-name="Group 1137835"> <path id="Path_1563827" data-name="Path 1563827" d="M243.09,95.743A3.362,3.362,0,0,1,240.4,93.1a.061.061,0,0,0-.12,0,3.363,3.363,0,0,1-2.7,2.638.059.059,0,0,0,0,.117,3.363,3.363,0,0,1,2.693,2.644.061.061,0,0,0,.12,0,3.363,3.363,0,0,1,2.7-2.638A.059.059,0,0,0,243.09,95.743Z" transform="translate(-237.527 -93.049)" fill="#fff"></path> </g> </g> <g id="Group_1137838" data-name="Group 1137838" transform="translate(44.945 0)"> <g id="Group_1137837" data-name="Group 1137837"> <path id="Path_1563828" data-name="Path 1563828" d="M151.544,16.71a1.934,1.934,0,0,1-1.55-1.518.035.035,0,0,0-.069,0,1.933,1.933,0,0,1-1.55,1.518.034.034,0,0,0,0,.067,1.934,1.934,0,0,1,1.55,1.518.035.035,0,0,0,.069,0,1.933,1.933,0,0,1,1.55-1.518A.034.034,0,0,0,151.544,16.71Z" transform="translate(-148.345 -15.163)" fill="#fff"></path> </g> </g> <g id="Group_1137840" data-name="Group 1137840" transform="translate(10.69 60.594)"> <g id="Group_1137839" data-name="Group 1137839"> <path id="Path_1563829" data-name="Path 1563829" d="M36.241,216.824h.706v-.706a.956.956,0,0,1,1.913,0v.706h.706a.956.956,0,1,1,0,1.913H38.86v.706a.956.956,0,0,1-1.913,0v-.706h-.706a.956.956,0,1,1,0-1.913Z" transform="translate(-35.285 -215.162)" fill="#fff"></path> </g> </g> <g id="Group_1137842" data-name="Group 1137842" transform="translate(4.63 59.648)"> <g id="Group_1137841" data-name="Group 1137841"> <circle id="Ellipse_54007" data-name="Ellipse 54007" cx="1.023" cy="1.023" r="1.023" fill="#fff"></circle> </g> </g> <g id="Group_1137844" data-name="Group 1137844" transform="translate(70.697 18.481)"> <g id="Group_1137843" data-name="Group 1137843"> <circle id="Ellipse_54008" data-name="Ellipse 54008" cx="1.023" cy="1.023" r="1.023" fill="#fff"></circle> </g> </g> <g id="Group_1137846" data-name="Group 1137846" transform="translate(61.019 59.685)"> <g id="Group_1137845" data-name="Group 1137845"> <path id="Path_1563830" data-name="Path 1563830" d="M204.339,213.677h-2.181a.757.757,0,1,1,0-1.515h2.181a.757.757,0,0,1,0,1.515Z" transform="translate(-201.4 -212.162)" fill="#fff"></path> </g> </g> <g id="Group_1137848" data-name="Group 1137848" transform="translate(50.261 13.634)"> <g id="Group_1137847" data-name="Group 1137847"> <path id="Path_1563831" data-name="Path 1563831" d="M168.132,61.677H166.65a.757.757,0,0,1,0-1.515h1.482a.757.757,0,1,1,0,1.515Z" transform="translate(-165.893 -60.162)" fill="#fff"></path> </g> </g> <g id="Group_1137850" data-name="Group 1137850" transform="translate(45.652 13.634)"> <g id="Group_1137849" data-name="Group 1137849"> <path id="Path_1563832" data-name="Path 1563832" d="M152.919,61.677h-1.482a.757.757,0,1,1,0-1.515h1.482a.757.757,0,0,1,0,1.515Z" transform="translate(-150.68 -60.162)" fill="#fff"></path> </g> </g> <g id="Group_1137852" data-name="Group 1137852" transform="translate(41.042 13.634)"> <g id="Group_1137851" data-name="Group 1137851"> <path id="Path_1563833" data-name="Path 1563833" d="M137.7,61.677h-1.482a.757.757,0,1,1,0-1.515H137.7a.757.757,0,1,1,0,1.515Z" transform="translate(-135.466 -60.162)" fill="#fff"></path> </g> </g> <g id="Group_1137854" data-name="Group 1137854" transform="translate(8.366 26.898)"> <g id="Group_1137853" data-name="Group 1137853"> <path id="Path_1563834" data-name="Path 1563834" d="M41.671,120.175a.755.755,0,0,1-.562-.25l-13.3-14.717a.757.757,0,0,1,1.124-1.016l13.3,14.717a.758.758,0,0,1-.562,1.266Z" transform="translate(-27.612 -103.943)" fill="#fff"></path> </g> </g> <g id="Group_1137856" data-name="Group 1137856" transform="translate(8.327 26.856)"> <g id="Group_1137855" data-name="Group 1137855" transform="translate(0 0)"> <path id="Path_1563835" data-name="Path 1563835" d="M28.242,120.078a.758.758,0,0,1-.561-1.266l13.34-14.76a.757.757,0,0,1,1.124,1.016L28.8,119.828A.755.755,0,0,1,28.242,120.078Z" transform="translate(-27.485 -103.803)" fill="#fff"></path> </g> </g> <g id="Group_1137858" data-name="Group 1137858" transform="translate(27.15 26.898)"> <g id="Group_1137857" data-name="Group 1137857"> <path id="Path_1563836" data-name="Path 1563836" d="M103.671,120.175a.755.755,0,0,1-.562-.25l-13.3-14.717a.757.757,0,0,1,1.124-1.016l13.3,14.717a.758.758,0,0,1-.562,1.266Z" transform="translate(-89.612 -103.943)" fill="#fff"></path> </g> </g> <g id="Group_1137860" data-name="Group 1137860" transform="translate(27.111 26.856)"> <g id="Group_1137859" data-name="Group 1137859" transform="translate(0 0)"> <path id="Path_1563837" data-name="Path 1563837" d="M90.242,120.078a.758.758,0,0,1-.561-1.266l13.34-14.76a.757.757,0,0,1,1.124,1.016L90.8,119.828A.755.755,0,0,1,90.242,120.078Z" transform="translate(-89.485 -103.803)" fill="#fff"></path> </g> </g> <g id="Group_1137862" data-name="Group 1137862" transform="translate(45.631 26.898)"> <g id="Group_1137861" data-name="Group 1137861"> <path id="Path_1563838" data-name="Path 1563838" d="M156.949,111.632a.755.755,0,0,1-.562-.25l-5.58-6.173a.757.757,0,0,1,1.124-1.016l5.58,6.173a.758.758,0,0,1-.562,1.266Z" transform="translate(-150.612 -103.943)" fill="#fff"></path> </g> </g> <g id="Group_1137864" data-name="Group 1137864" transform="translate(45.593 35.552)"> <g id="Group_1137863" data-name="Group 1137863"> <path id="Path_1563839" data-name="Path 1563839" d="M151.242,140.084a.758.758,0,0,1-.561-1.266l5.48-6.064a.757.757,0,0,1,1.124,1.016l-5.48,6.064A.755.755,0,0,1,151.242,140.084Z" transform="translate(-150.485 -132.505)" fill="#fff"></path> </g> </g> <g id="Group_1137866" data-name="Group 1137866" transform="translate(55.501 26.856)"> <g id="Group_1137865" data-name="Group 1137865" transform="translate(0 0)"> <path id="Path_1563840" data-name="Path 1563840" d="M183.945,109.116a.758.758,0,0,1-.561-1.266l3.432-3.8a.757.757,0,0,1,1.124,1.016l-3.432,3.8A.756.756,0,0,1,183.945,109.116Z" transform="translate(-183.188 -103.803)" fill="#fff"></path> </g> </g> <g id="Group_1137868" data-name="Group 1137868" transform="translate(19.846 63.56)"> <g id="Group_1137867" data-name="Group 1137867"> <path id="Path_1563841" data-name="Path 1563841" d="M92.059,229.764H67.911a2.407,2.407,0,1,1,0-4.813H92.059a2.407,2.407,0,0,1,0,4.813Zm-24.148-3.3a.892.892,0,1,0,0,1.784H92.059a.892.892,0,0,0,0-1.784Z" transform="translate(-65.504 -224.951)" fill="#fff"></path> </g> </g> <g id="Group_1137870" data-name="Group 1137870" transform="translate(26.902 56.002)"> <g id="Group_1137869" data-name="Group 1137869"> <path id="Path_1563842" data-name="Path 1563842" d="M102.886,209.077H89.551a.757.757,0,0,1-.757-.757v-7.558a.757.757,0,0,1,.757-.757h13.334a.757.757,0,0,1,.757.757v7.558A.757.757,0,0,1,102.886,209.077Zm-12.577-1.515h11.819v-6.043H90.309Z" transform="translate(-88.794 -200.004)" fill="#fff"></path> </g> </g> <g id="Group_1137872" data-name="Group 1137872" transform="translate(51.135 30.715)"> <g id="Group_1137871" data-name="Group 1137871"> <path id="Path_1563843" data-name="Path 1563843" d="M188.08,154.2H172.852a4.078,4.078,0,0,1-4.074-4.074V120.614a4.078,4.078,0,0,1,4.074-4.074H188.08a4.078,4.078,0,0,1,4.074,4.074v29.511A4.078,4.078,0,0,1,188.08,154.2Zm-15.229-36.144a2.562,2.562,0,0,0-2.559,2.559v29.511a2.562,2.562,0,0,0,2.559,2.559H188.08a2.562,2.562,0,0,0,2.559-2.559V120.613a2.562,2.562,0,0,0-2.559-2.559Z" transform="translate(-168.778 -116.54)" fill="#fff"></path> </g> </g> <g id="Group_1137874" data-name="Group 1137874" transform="translate(0 4.945)"> <g id="Group_1137873" data-name="Group 1137873"> <path id="Path_1563844" data-name="Path 1563844" d="M51.657,84.057H4.279A4.283,4.283,0,0,1,0,79.779V35.765a4.283,4.283,0,0,1,4.279-4.279h60.1a4.283,4.283,0,0,1,4.279,4.279V57.772a.757.757,0,1,1-1.515,0V35.765A2.767,2.767,0,0,0,64.374,33H4.279a2.767,2.767,0,0,0-2.764,2.764V79.779a2.767,2.767,0,0,0,2.764,2.764H51.657a.757.757,0,1,1,0,1.515Z" transform="translate(0 -31.486)" fill="#fff"></path> </g> </g> <g id="Group_1137876" data-name="Group 1137876" transform="translate(0.189 46.612)"> <g id="Group_1137875" data-name="Group 1137875"> <path id="Path_1563845" data-name="Path 1563845" d="M52.08,170.527H1.382a.757.757,0,0,1,0-1.515h50.7a.757.757,0,0,1,0,1.515Z" transform="translate(-0.625 -169.012)" fill="#fff"></path> </g> </g> <g id="Group_1137878" data-name="Group 1137878" transform="translate(31.832 49.57)"> <g id="Group_1137877" data-name="Group 1137877"> <path id="Path_1563846" data-name="Path 1563846" d="M107.561,183.764a2.494,2.494,0,1,1,2.494-2.494A2.5,2.5,0,0,1,107.561,183.764Zm0-3.474a.979.979,0,1,0,.979.979A.98.98,0,0,0,107.561,180.291Z" transform="translate(-105.067 -178.776)" fill="#fff"></path> </g> </g> <g id="Group_1137880" data-name="Group 1137880" transform="translate(2.934 7.88)"> <g id="Group_1137879" data-name="Group 1137879"> <path id="Path_1563847" data-name="Path 1563847" d="M10.442,81.225a.757.757,0,0,1-.757-.757V42.515a1.346,1.346,0,0,1,1.344-1.344h60.1a1.346,1.346,0,0,1,1.344,1.344V64.568a.757.757,0,0,1-1.515,0V42.686H11.2V80.468a.757.757,0,0,1-.757.757Z" transform="translate(-9.685 -41.171)" fill="#fff"></path> </g> </g> <g id="Group_1137887" data-name="Group 1137887" transform="translate(3.194 33.629)"> <g id="Group_1137882" data-name="Group 1137882"> <g id="Group_1137881" data-name="Group 1137881"> <path id="Path_1563848" data-name="Path 1563848" d="M15.642,127.675H11.3a.757.757,0,1,1,0-1.515h4.343a.757.757,0,1,1,0,1.515Z" transform="translate(-10.542 -126.16)" fill="#fff"></path> </g> </g> <g id="Group_1137884" data-name="Group 1137884" transform="translate(19.1)"> <g id="Group_1137883" data-name="Group 1137883"> <path id="Path_1563849" data-name="Path 1563849" d="M78.491,127.675H74.34a.757.757,0,1,1,0-1.515h4.15a.757.757,0,1,1,0,1.515Z" transform="translate(-73.583 -126.16)" fill="#fff"></path> </g> </g> <g id="Group_1137886" data-name="Group 1137886" transform="translate(38.01)"> <g id="Group_1137885" data-name="Group 1137885"> <path id="Path_1563850" data-name="Path 1563850" d="M140.494,127.675h-3.737a.757.757,0,0,1,0-1.515h3.737a.757.757,0,0,1,0,1.515Z" transform="translate(-136 -126.16)" fill="#fff"></path> </g> </g> </g> <g id="Group_1137889" data-name="Group 1137889" transform="translate(54.05 33.629)"> <g id="Group_1137888" data-name="Group 1137888"> <path id="Path_1563851" data-name="Path 1563851" d="M194.216,157.989H180.129a1.732,1.732,0,0,1-1.73-1.73V127.89a1.732,1.732,0,0,1,1.73-1.73h3.412a1.9,1.9,0,0,1,1.78,1.2,1.992,1.992,0,0,0,3.7,0,1.9,1.9,0,0,1,1.78-1.2h3.412a1.732,1.732,0,0,1,1.73,1.73v28.369A1.732,1.732,0,0,1,194.216,157.989Zm-14.087-30.315a.215.215,0,0,0-.215.215v28.369a.215.215,0,0,0,.215.215h14.087a.215.215,0,0,0,.215-.215V127.89a.215.215,0,0,0-.215-.215H190.8a.4.4,0,0,0-.372.241,3.507,3.507,0,0,1-6.519,0,.4.4,0,0,0-.372-.241Z" transform="translate(-178.399 -126.16)" fill="#fff"></path> </g> </g> <g id="Group_1137891" data-name="Group 1137891" transform="translate(54.333 41.81)"> <g id="Group_1137890" data-name="Group 1137890" transform="translate(0 0)"> <path id="Path_1563852" data-name="Path 1563852" d="M184.875,154.677H180.09a.757.757,0,1,1,0-1.515h4.785a.757.757,0,0,1,0,1.515Z" transform="translate(-179.333 -153.162)" fill="#fff"></path> </g> </g> <g id="Group_1137893" data-name="Group 1137893" transform="translate(65.076 41.81)"> <g id="Group_1137892" data-name="Group 1137892" transform="translate(0 0)"> <path id="Path_1563853" data-name="Path 1563853" d="M220.3,154.677h-4.75a.757.757,0,1,1,0-1.515h4.75a.757.757,0,1,1,0,1.515Z" transform="translate(-214.792 -153.162)" fill="#fff"></path> </g> </g> <g id="Group_1137895" data-name="Group 1137895" transform="translate(56.6 47.247)"> <g id="Group_1137894" data-name="Group 1137894"> <path id="Path_1563854" data-name="Path 1563854" d="M196.806,176.023h-7.532a2.457,2.457,0,0,1,0-4.914h7.532a2.457,2.457,0,0,1,0,4.914Zm-7.532-3.4a.942.942,0,1,0,0,1.884h7.532a.942.942,0,0,0,0-1.884Z" transform="translate(-186.817 -171.109)" fill="#fff"></path> </g> </g> <g id="Group_1137897" data-name="Group 1137897" transform="translate(56.6 53.48)"> <g id="Group_1137896" data-name="Group 1137896"> <path id="Path_1563855" data-name="Path 1563855" d="M196.806,196.6h-7.532a2.457,2.457,0,1,1,0-4.914h7.532a2.457,2.457,0,1,1,0,4.914Zm-7.532-3.4a.942.942,0,1,0,0,1.884h7.532a.942.942,0,0,0,0-1.884Z" transform="translate(-186.817 -191.682)" fill="#fff"></path> </g> </g> <g id="Group_1137899" data-name="Group 1137899" transform="translate(59.383 39.083)"> <g id="Group_1137898" data-name="Group 1137898"> <path id="Path_1563856" data-name="Path 1563856" d="M199.484,151.13a3.484,3.484,0,1,1,3.484-3.484A3.488,3.488,0,0,1,199.484,151.13Zm0-5.454a1.969,1.969,0,1,0,1.969,1.969A1.972,1.972,0,0,0,199.484,145.677Z" transform="translate(-196 -144.162)" fill="#fff"></path> </g> </g> <g id="Group_1137901" data-name="Group 1137901" transform="translate(59.989 47.404)"> <g id="Group_1137900" data-name="Group 1137900"> <path id="Path_1563857" data-name="Path 1563857" d="M198.757,176.227a.757.757,0,0,1-.757-.757v-3.087a.757.757,0,1,1,1.515,0v3.087A.757.757,0,0,1,198.757,176.227Z" transform="translate(-198 -171.625)" fill="#fff"></path> </g> </g> <g id="Group_1137903" data-name="Group 1137903" transform="translate(59.989 53.662)"> <g id="Group_1137902" data-name="Group 1137902"> <path id="Path_1563858" data-name="Path 1563858" d="M198.757,196.892a.757.757,0,0,1-.757-.757v-3.1a.757.757,0,0,1,1.515,0v3.1A.757.757,0,0,1,198.757,196.892Z" transform="translate(-198 -192.281)" fill="#fff"></path> </g> </g> <g id="Group_1137905" data-name="Group 1137905" transform="translate(7.877 26.358)"> <g id="Group_1137904" data-name="Group 1137904"> <path id="Path_1563859" data-name="Path 1563859" d="M39.593,119.431H28.162A2.164,2.164,0,0,1,26,117.269V104.324a2.164,2.164,0,0,1,2.162-2.162H39.593a2.164,2.164,0,0,1,2.162,2.162v12.945A2.164,2.164,0,0,1,39.593,119.431ZM28.162,103.677a.648.648,0,0,0-.647.647v12.945a.648.648,0,0,0,.647.647H39.593a.648.648,0,0,0,.647-.647V104.324a.648.648,0,0,0-.647-.647Z" transform="translate(-26 -102.162)" fill="#fff"></path> </g> </g> <g id="Group_1137907" data-name="Group 1137907" transform="translate(45.143 26.358)"> <g id="Group_1137906" data-name="Group 1137906"> <path id="Path_1563860" data-name="Path 1563860" d="M155.5,119.431h-4.339A2.164,2.164,0,0,1,149,117.269V104.324a2.164,2.164,0,0,1,2.162-2.162h11.431a2.164,2.164,0,0,1,2.162,2.162v2.711a.757.757,0,0,1-1.515,0v-2.711a.648.648,0,0,0-.647-.647H151.162a.648.648,0,0,0-.647.647v12.945a.648.648,0,0,0,.647.647H155.5a.757.757,0,1,1,0,1.515Z" transform="translate(-149 -102.162)" fill="#fff"></path> </g> </g> <g id="Group_1137909" data-name="Group 1137909" transform="translate(26.662 26.358)"> <g id="Group_1137908" data-name="Group 1137908"> <path id="Path_1563861" data-name="Path 1563861" d="M101.593,119.431H90.162A2.164,2.164,0,0,1,88,117.269V104.324a2.164,2.164,0,0,1,2.162-2.162h11.431a2.164,2.164,0,0,1,2.162,2.162v12.945A2.164,2.164,0,0,1,101.593,119.431ZM90.162,103.677a.648.648,0,0,0-.647.647v12.945a.648.648,0,0,0,.647.647h11.431a.648.648,0,0,0,.647-.647V104.324a.648.648,0,0,0-.647-.647Z" transform="translate(-88 -102.162)" fill="#fff"></path> </g> </g> <g id="Group_1137911" data-name="Group 1137911" transform="translate(21.456 18.813)"> <g id="Group_1137910" data-name="Group 1137910"> <path id="Path_1563862" data-name="Path 1563862" d="M94.44,82.171H73.274a2.457,2.457,0,0,1,0-4.914H94.44a2.457,2.457,0,0,1,0,4.914Zm-21.166-3.4a.942.942,0,0,0,0,1.884H94.44a.942.942,0,0,0,0-1.884Z" transform="translate(-70.817 -77.257)" fill="#fff"></path> </g> </g> <g id="Group_1137913" data-name="Group 1137913" transform="translate(55.444 10.907)"> <g id="Group_1137912" data-name="Group 1137912"> <path id="Path_1563863" data-name="Path 1563863" d="M186.484,58.13a3.484,3.484,0,1,1,3.484-3.484A3.488,3.488,0,0,1,186.484,58.13Zm0-5.454a1.969,1.969,0,1,0,1.969,1.969A1.972,1.972,0,0,0,186.484,52.677Z" transform="translate(-183 -51.162)" fill="#fff"></path> </g> </g> <g id="Group_1137915" data-name="Group 1137915" transform="translate(25.147 18.987)"> <g id="Group_1137914" data-name="Group 1137914"> <path id="Path_1563864" data-name="Path 1563864" d="M83.757,82.327A.757.757,0,0,1,83,81.57V78.59a.757.757,0,1,1,1.515,0V81.57A.757.757,0,0,1,83.757,82.327Z" transform="translate(-83 -77.833)" fill="#fff"></path> </g> </g> <g id="Group_1137918" data-name="Group 1137918" transform="translate(7.877 12.119)"> <g id="Group_1137917" data-name="Group 1137917"> <g id="Group_1137916" data-name="Group 1137916"> <path id="Path_1563865" data-name="Path 1563865" d="M31.819,59.707H28.272a2.272,2.272,0,1,1,0-4.545h3.547a2.272,2.272,0,1,1,0,4.545Zm-3.547-3.03a.757.757,0,1,0,0,1.515h3.547a.757.757,0,0,0,0-1.515Z" transform="translate(-26 -55.162)" fill="#fff"></path> </g> </g> </g> </svg>