<svg xmlns="http://www.w3.org/2000/svg" width="85.901" height="64.426" viewBox="0 0 85.901 64.426"> <g id="web-programming_1_" data-name="web-programming (1)" transform="translate(-2 -9.5)"> <rect id="Rectangle_176662" data-name="Rectangle 176662" width="71.682" height="53.761" rx="5" transform="translate(3.707 11.207)" fill="#e6f3ff"></rect> <path id="Path_1564094" data-name="Path 1564094" d="M10.158,10.5H67.426a7.162,7.162,0,0,1,7.158,7.158v4.3H3v-4.3A7.162,7.162,0,0,1,10.158,10.5Z" transform="translate(0.432 0.432)" fill="#44b4f5"></path> <path id="Path_1564095" data-name="Path 1564095" d="M67.857,66.767H10.59A8.6,8.6,0,0,1,2,58.177V18.09A8.6,8.6,0,0,1,10.59,9.5H67.857a8.6,8.6,0,0,1,8.59,8.59V58.177A8.6,8.6,0,0,1,67.857,66.767ZM10.59,12.363A5.732,5.732,0,0,0,4.863,18.09V58.177A5.732,5.732,0,0,0,10.59,63.9H67.857a5.732,5.732,0,0,0,5.727-5.727V18.09a5.732,5.732,0,0,0-5.727-5.727Z" transform="translate(0 0)" fill="#fff"></path> <rect id="Rectangle_176663" data-name="Rectangle 176663" width="38.401" height="37.547" rx="5" transform="translate(48.081 35.101)" fill="#44b4f5"></rect> <path id="Path_1564096" data-name="Path 1564096" d="M65.929,66.587H41.59A8.6,8.6,0,0,1,33,58V35.09a8.6,8.6,0,0,1,8.59-8.59H65.929a8.6,8.6,0,0,1,8.59,8.59V58A8.6,8.6,0,0,1,65.929,66.587ZM41.59,29.363a5.732,5.732,0,0,0-5.727,5.727V58a5.732,5.732,0,0,0,5.727,5.727H65.929A5.732,5.732,0,0,0,71.655,58V35.09a5.732,5.732,0,0,0-5.727-5.727Z" transform="translate(13.382 7.339)" fill="#fff"></path> <path id="Path_1564097" data-name="Path 1564097" d="M11.289,16.363H8.426a1.432,1.432,0,0,1,0-2.863h2.863A1.432,1.432,0,0,1,11.289,16.363Z" transform="translate(2.165 1.727)" fill="#e6f3ff"></path> <path id="Path_1564098" data-name="Path 1564098" d="M16.289,16.363H13.426a1.432,1.432,0,0,1,0-2.863h2.863A1.432,1.432,0,0,1,16.289,16.363Z" transform="translate(4.323 1.727)" fill="#e6f3ff"></path> <path id="Path_1564099" data-name="Path 1564099" d="M21.289,16.363H18.426a1.432,1.432,0,0,1,0-2.863h2.863A1.432,1.432,0,0,1,21.289,16.363Z" transform="translate(6.481 1.727)" fill="#e6f3ff"></path> <g id="Group_1138112" data-name="Group 1138112" transform="translate(7.727 28.112)"> <path id="Path_1564100" data-name="Path 1564100" d="M20.311,25.363H7.425a1.432,1.432,0,0,1,0-2.863H20.311A1.432,1.432,0,0,1,20.311,25.363Z" transform="translate(-5.994 -22.5)" fill="#44b4f5"></path> <path id="Path_1564101" data-name="Path 1564101" d="M37.5,29.363H7.432a1.432,1.432,0,1,1,0-2.863H37.5A1.432,1.432,0,0,1,37.5,29.363Z" transform="translate(-6 -20.773)" fill="#44b4f5"></path> <path id="Path_1564102" data-name="Path 1564102" d="M37.5,33.363H7.432a1.432,1.432,0,0,1,0-2.863H37.5A1.432,1.432,0,0,1,37.5,33.363Z" transform="translate(-6 -19.047)" fill="#44b4f5"></path> <path id="Path_1564103" data-name="Path 1564103" d="M14.727,46.956a1.427,1.427,0,0,1-1.012-.419l-4.3-4.3a1.431,1.431,0,0,1,0-2.024l4.3-4.3a1.432,1.432,0,0,1,2.024,2.025L12.456,41.23l3.283,3.283a1.441,1.441,0,0,1-1.012,2.444Z" transform="translate(-4.705 -16.891)" fill="#44b4f5"></path> <path id="Path_1564104" data-name="Path 1564104" d="M22.435,46.957a1.441,1.441,0,0,1-1.012-2.444l3.283-3.283-3.283-3.283a1.432,1.432,0,0,1,2.025-2.024l4.295,4.295a1.431,1.431,0,0,1,0,2.024l-4.3,4.3a1.427,1.427,0,0,1-1.012.419Z" transform="translate(0.472 -16.891)" fill="#44b4f5"></path> <path id="Path_1564105" data-name="Path 1564105" d="M15.431,50.246a1.44,1.44,0,0,1-1.307-2.013l5.727-12.885a1.432,1.432,0,0,1,2.617,1.163L16.742,49.4a1.434,1.434,0,0,1-1.31.85Z" transform="translate(-2.548 -17.317)" fill="#44b4f5"></path> </g> <path id="Path_1564106" data-name="Path 1564106" d="M44.727,47.956a1.427,1.427,0,0,1-1.012-.419l-4.3-4.3a1.431,1.431,0,0,1,0-2.024l4.3-4.3a1.432,1.432,0,0,1,2.024,2.025L42.456,42.23l3.283,3.283a1.441,1.441,0,0,1-1.012,2.444Z" transform="translate(15.972 11.653)" fill="#e6f3ff"></path> <path id="Path_1564107" data-name="Path 1564107" d="M52.435,47.957a1.441,1.441,0,0,1-1.012-2.444l3.283-3.283-3.283-3.283a1.432,1.432,0,0,1,2.025-2.024l4.295,4.295a1.431,1.431,0,0,1,0,2.024l-4.3,4.3a1.427,1.427,0,0,1-1.012.419Z" transform="translate(21.15 11.652)" fill="#e6f3ff"></path> <path id="Path_1564108" data-name="Path 1564108" d="M45.431,51.246a1.44,1.44,0,0,1-1.307-2.013l5.727-12.885a1.432,1.432,0,0,1,2.617,1.163L46.742,50.4a1.434,1.434,0,0,1-1.31.85Z" transform="translate(18.13 11.226)" fill="#e6f3ff"></path> </g> </svg>