<svg xmlns="http://www.w3.org/2000/svg" width="62.845" height="58.819" viewBox="0 0 62.845 58.819"> <g id="prototype" transform="translate(-5.42 -13.26)"> <path id="Path_1563721" data-name="Path 1563721" d="M9.076,0h2.106a9.076,9.076,0,0,1,9.076,9.076V27.512a9.076,9.076,0,0,1-9.076,9.076H9.076A9.076,9.076,0,0,1,0,27.512V9.076A9.076,9.076,0,0,1,9.076,0Z" transform="translate(26.709 13.901)" fill="#35adf3"></path> <path id="Path_1563722" data-name="Path 1563722" d="M88.48,36.89h20.259V63.654H88.48Z" transform="translate(-61.771 -17.573)" fill="#efefef"></path> <path id="Path_1563723" data-name="Path 1563723" d="M194.944,140.563v21.069a2.563,2.563,0,0,1-2.563,2.563H179.193a2.563,2.563,0,0,1-2.563-2.563v-8.51a2,2,0,1,0,0-4.006v-8.553A2.563,2.563,0,0,1,179.193,138H192.38A2.563,2.563,0,0,1,194.944,140.563Z" transform="translate(-127.327 -92.768)" fill="#efefef"></path> <path id="Path_1563724" data-name="Path 1563724" d="M24.229,151.108a2,2,0,0,0,2,2.015v8.533a2.563,2.563,0,0,1-2.563,2.563H10.483a2.563,2.563,0,0,1-2.563-2.563V140.563A2.563,2.563,0,0,1,10.483,138H23.67a2.563,2.563,0,0,1,2.563,2.563v8.53a2,2,0,0,0-2,2.015Z" transform="translate(-1.859 -92.768)" fill="#efefef"></path> <path id="Path_1563725" data-name="Path 1563725" d="M24.92,167.66h9.6v6.108h-9.6Z" transform="translate(-14.502 -114.825)" fill="#35adf3"></path> <path id="Path_1563726" data-name="Path 1563726" d="M193.63,167.66h9.6v6.108h-9.6Z" transform="translate(-139.969 -114.825)" fill="#35adf3"></path> <path id="Path_1563727" data-name="Path 1563727" d="M103.16,63.61h12.734v6.108H103.16Z" transform="translate(-72.688 -37.445)" fill="#fde6a5"></path> <path id="Path_1563728" data-name="Path 1563728" d="M103.16,110.25h4.806v3.291H103.16Z" transform="translate(-72.688 -72.13)" fill="#72c1e8"></path> <path id="Path_1563729" data-name="Path 1563729" d="M134.1,110.25h4.806v3.291H134.1Z" transform="translate(-95.698 -72.13)" fill="#35adf3"></path> <path id="Path_1563730" data-name="Path 1563730" d="M73.547,181.32a2,2,0,1,0,2,2,2,2,0,0,0-2-2Z" transform="translate(-49.173 -124.984)" fill="#72c1e8"></path> <path id="Path_1563731" data-name="Path 1563731" d="M28.641,168.11H26.59a.641.641,0,1,1,0-1.282h2.051a.641.641,0,0,1,0,1.282Zm-4.614,0H15.141a.641.641,0,0,1-.641-.641V146.631a.641.641,0,0,1,1.282,0v20.2h8.253a.641.641,0,0,1,0,1.282Z" transform="translate(-6.753 -98.71)" fill="#fff"></path> <path id="Path_1563732" data-name="Path 1563732" d="M197.646,209.05H184.141a.641.641,0,0,1-.641-.641v-6.728a.641.641,0,1,1,1.282,0v6.087h12.859a.641.641,0,1,1,0,1.282Z" transform="translate(-132.436 -139.65)" fill="#fff"></path> <path id="Path_1563733" data-name="Path 1563733" d="M184.141,153.82a.641.641,0,0,1-.641-.641v-6.549a.641.641,0,1,1,1.282,0v6.539a.641.641,0,0,1-.641.651Z" transform="translate(-132.436 -98.71)" fill="#fff"></path> <g id="Group_1137785" data-name="Group 1137785" transform="translate(12.566 29.031)"> <path id="Path_1563734" data-name="Path 1563734" d="M170.814,181.32a2,2,0,1,0,2,2A2,2,0,0,0,170.814,181.32Z" transform="translate(-134.077 -154.015)" fill="#35adf3"></path> <path id="Path_1563735" data-name="Path 1563735" d="M38.606,77.953c-1.025-.336-2.063-.628-2.65-3.163-.546,2.335-1.415,2.753-2.655,3.163,2.025.669,2.33,1.779,2.653,3.165.554-2.391,1.471-2.776,2.653-3.165Z" transform="translate(-33.3 -74.79)" fill="#35adf3"></path> <path id="Path_1563736" data-name="Path 1563736" d="M207.313,77.953c-1.025-.336-2.05-.628-2.65-3.163-.543,2.335-1.412,2.753-2.653,3.163,2.025.669,2.33,1.779,2.653,3.165.554-2.391,1.471-2.776,2.65-3.165Z" transform="translate(-158.768 -74.79)" fill="#35adf3"></path> <path id="Path_1563737" data-name="Path 1563737" d="M122.956,211.943c-1.025-.336-2.05-.628-2.653-3.163-.541,2.335-1.41,2.753-2.653,3.163,2.025.669,2.33,1.776,2.653,3.165C120.856,212.717,121.777,212.333,122.956,211.943Z" transform="translate(-96.03 -174.437)" fill="#35adf3"></path> </g> <path id="Path_1563738" data-name="Path 1563738" d="M203.1,204.21h-7.774a.641.641,0,0,0,0,1.282H203.1a.641.641,0,1,0,0-1.282Z" transform="translate(-140.758 -142.007)"></path> <path id="Path_1563739" data-name="Path 1563739" d="M203.1,214.87h-7.774a.641.641,0,0,0,0,1.282H203.1a.641.641,0,1,0,0-1.282Z" transform="translate(-140.758 -149.935)"></path> <path id="Path_1563740" data-name="Path 1563740" d="M34.571,179.41a.643.643,0,0,0-.641.641v.09a.641.641,0,1,0,1.282,0v-.09A.643.643,0,0,0,34.571,179.41Z" transform="translate(-21.203 -123.564)"></path> <path id="Path_1563741" data-name="Path 1563741" d="M41.791,179.41a.641.641,0,0,0-.641.641v.09a.641.641,0,1,0,1.282,0v-.09A.641.641,0,0,0,41.791,179.41Z" transform="translate(-26.572 -123.564)"></path> <path id="Path_1563742" data-name="Path 1563742" d="M49,179.41a.643.643,0,0,0-.641.641v.09a.641.641,0,1,0,1.282,0v-.09A.643.643,0,0,0,49,179.41Z" transform="translate(-31.934 -123.564)"></path> <path id="Path_1563743" data-name="Path 1563743" d="M22.42,165.791V171.9a.636.636,0,0,0,.641.641h9.6a.638.638,0,0,0,.641-.641v-6.108a.643.643,0,0,0-.641-.641h-9.6a.643.643,0,0,0-.641.641Zm1.282.641h8.317v4.831H23.7Z" transform="translate(-12.643 -112.959)"></path> <path id="Path_1563744" data-name="Path 1563744" d="M203.281,180.781a.643.643,0,0,0,.641-.641v-.09a.641.641,0,0,0-1.282,0v.09A.643.643,0,0,0,203.281,180.781Z" transform="translate(-146.67 -123.564)"></path> <path id="Path_1563745" data-name="Path 1563745" d="M210.5,180.94a.646.646,0,0,0,.641-.643v-.087a.643.643,0,0,0-1.282,0v.087A.646.646,0,0,0,210.5,180.94Z" transform="translate(-152.039 -123.723)"></path> <path id="Path_1563746" data-name="Path 1563746" d="M217.711,180.779a.641.641,0,0,0,.641-.641v-.087a.641.641,0,0,0-1.282,0v.087A.641.641,0,0,0,217.711,180.779Z" transform="translate(-157.401 -123.564)"></path> <path id="Path_1563747" data-name="Path 1563747" d="M202.013,171.906V165.8a.643.643,0,0,0-.641-.638h-9.6a.638.638,0,0,0-.641.638v6.108a.643.643,0,0,0,.641.643h9.6A.646.646,0,0,0,202.013,171.906Zm-1.282-.638h-8.322v-4.829h8.32Z" transform="translate(-138.11 -112.966)"></path> <path id="Path_1563748" data-name="Path 1563748" d="M101.3,97.622h12.734a.641.641,0,0,0,0-1.282H101.3a.641.641,0,0,0,0,1.282Z" transform="translate(-70.829 -61.786)"></path> <path id="Path_1563749" data-name="Path 1563749" d="M118.921,75.36a.643.643,0,0,0-.641.641v.09a.641.641,0,1,0,1.282,0V76A.643.643,0,0,0,118.921,75.36Z" transform="translate(-83.933 -46.183)"></path> <path id="Path_1563750" data-name="Path 1563750" d="M126.141,75.36A.643.643,0,0,0,125.5,76v.09a.641.641,0,1,0,1.282,0V76A.643.643,0,0,0,126.141,75.36Z" transform="translate(-89.302 -46.183)"></path> <path id="Path_1563751" data-name="Path 1563751" d="M133.361,75.36a.643.643,0,0,0-.641.641v.09a.641.641,0,1,0,1.282,0V76a.643.643,0,0,0-.641-.641Z" transform="translate(-94.671 -46.183)"></path> <path id="Path_1563752" data-name="Path 1563752" d="M101.3,68.5h12.734a.638.638,0,0,0,.641-.638v-6.11a.638.638,0,0,0-.641-.638H101.3a.638.638,0,0,0-.641.638v6.11a.638.638,0,0,0,.641.638Zm.641-6.108h11.452v4.826H101.942Z" transform="translate(-70.829 -35.585)"></path> <path id="Path_1563753" data-name="Path 1563753" d="M34.395,151.722a.641.641,0,1,0,0-1.282H26.621a.641.641,0,0,0,0,1.282Z" transform="translate(-15.29 -102.019)"></path> <path id="Path_1563754" data-name="Path 1563754" d="M34.395,204.21H26.621a.641.641,0,0,0,0,1.282h7.774a.641.641,0,1,0,0-1.282Z" transform="translate(-15.29 -142.007)"></path> <path id="Path_1563755" data-name="Path 1563755" d="M35.036,215.518a.641.641,0,0,0-.641-.638H26.621a.641.641,0,1,0,0,1.282h7.774a.641.641,0,0,0,.641-.643Z" transform="translate(-15.29 -149.942)"></path> <path id="Path_1563756" data-name="Path 1563756" d="M203.1,150.44h-7.774a.641.641,0,0,0,0,1.282H203.1a.641.641,0,1,0,0-1.282Z" transform="translate(-140.758 -102.019)"></path> <path id="Path_1563757" data-name="Path 1563757" d="M5.42,47.8V68.864a3.209,3.209,0,0,0,3.2,3.2h.7a.641.641,0,1,0,0-1.282h-.7A1.927,1.927,0,0,1,6.7,68.864V47.8a1.93,1.93,0,0,1,1.922-1.922H21.811A1.93,1.93,0,0,1,23.734,47.8v7.969a2.645,2.645,0,0,0,0,5.126v7.969a1.927,1.927,0,0,1-1.922,1.922H14.452a.641.641,0,0,0,0,1.282h7.359a3.209,3.209,0,0,0,3.2-3.2V60.9a2.648,2.648,0,0,0,1.92-1.92h3.437a3.209,3.209,0,0,0,3.2-3.2v-4.65h6.595v4.647a3.209,3.209,0,0,0,3.2,3.2H46.75a2.648,2.648,0,0,0,1.92,1.92v7.974a3.209,3.209,0,0,0,3.2,3.2H65.061a3.209,3.209,0,0,0,3.2-3.2V47.8a3.209,3.209,0,0,0-3.2-3.2H63.936a.641.641,0,0,0,0,1.282h1.125A1.93,1.93,0,0,1,66.984,47.8V68.864a1.93,1.93,0,0,1-1.922,1.922H51.866a1.93,1.93,0,0,1-1.922-1.922V60.906a2.645,2.645,0,0,0,0-5.126V47.8a1.93,1.93,0,0,1,1.922-1.922H58.8a.641.641,0,0,0,0-1.282H51.866a3.209,3.209,0,0,0-3.2,3.2v7.971a2.648,2.648,0,0,0-1.92,1.922H43.367a1.922,1.922,0,0,1-1.922-1.922V51.128h2.96a3.206,3.206,0,0,0,3.2-3.2V16.464a3.209,3.209,0,0,0-3.2-3.2H29.283a3.209,3.209,0,0,0-3.209,3.2V47.926a3.206,3.206,0,0,0,3.2,3.2h3.022v4.647A1.922,1.922,0,0,1,30.372,57.7H26.935a2.648,2.648,0,0,0-1.92-1.922V47.8a3.209,3.209,0,0,0-3.2-3.2H8.624a3.209,3.209,0,0,0-3.2,3.2ZM49.3,56.966a1.358,1.358,0,1,0,0,.01ZM31.105,40.76V38.75h3.524V40.76Zm9.066,9.086H33.584V46.719h6.587Zm-1.123-9.079V38.758h3.524v2.009Zm7.274,7.159A1.922,1.922,0,0,1,44.4,49.849H41.452v-3.13h4.87ZM27.355,16.464a1.922,1.922,0,0,1,1.922-1.922H44.4a1.922,1.922,0,0,1,1.922,1.922v2.212H27.355Zm0,3.494H46.322v25.48h-4.87V42.052h1.761a.638.638,0,0,0,.641-.641V38.12a.641.641,0,0,0-.641-.641H38.4a.638.638,0,0,0-.638.641v3.291a.638.638,0,0,0,.638.641h1.771v3.386H33.584V42.052h1.7a.638.638,0,0,0,.638-.641V38.12a.638.638,0,0,0-.638-.641H30.472a.641.641,0,0,0-.641.641v3.291a.641.641,0,0,0,.641.641h1.822v3.386H27.355Zm1.917,29.889a1.922,1.922,0,0,1-1.922-1.922v-1.2h4.944v3.127Zm-4.9,7.131a1.364,1.364,0,1,1-1.364,1.364,1.364,1.364,0,0,1,1.364-1.364Z" transform="translate(0 0)" fill="#fff"></path> <circle id="Ellipse_54003" data-name="Ellipse 54003" cx="0.641" cy="0.641" r="0.641" transform="translate(11.249 70.797)"></circle> <circle id="Ellipse_54004" data-name="Ellipse 54004" cx="0.641" cy="0.641" r="0.641" transform="translate(60.725 44.602)"></circle> <path id="Path_1563758" data-name="Path 1563758" d="M101.3,51.282h2.463a.641.641,0,1,0,0-1.282H101.3a.641.641,0,0,0,0,1.282Z" transform="translate(-70.829 -27.323)"></path> <path id="Path_1563759" data-name="Path 1563759" d="M121.341,51.282H123.8a.641.641,0,0,0,0-1.282h-2.463a.641.641,0,0,0,0,1.282Z" transform="translate(-85.732 -27.323)"></path> <path id="Path_1563760" data-name="Path 1563760" d="M141.371,51.282h2.463a.641.641,0,0,0,0-1.282h-2.463a.641.641,0,0,0,0,1.282Z" transform="translate(-100.628 -27.323)"></path> <path id="Path_1563761" data-name="Path 1563761" d="M122.807,24.38H119.3a.641.641,0,0,0,0,1.282h3.506a.641.641,0,0,0,0-1.282Z" transform="translate(-84.215 -8.27)"></path> <path id="Path_1563762" data-name="Path 1563762" d="M33.359,79.345a.684.684,0,0,0,1.33,0c.487-2.1,1.207-2.343,2.2-2.671a.682.682,0,0,0,0-1.282c-.956-.315-1.7-.513-2.2-2.671a.684.684,0,0,0-1.33,0c-.487,2.1-1.169,2.33-2.2,2.671a.682.682,0,0,0,0,1.282C32.872,77.24,33.067,78.076,33.359,79.345Zm.669-4.491a3.481,3.481,0,0,0,1.025,1.179,3.355,3.355,0,0,0-1.015,1.138,3.537,3.537,0,0,0-1.069-1.13A3.386,3.386,0,0,0,34.028,74.854Z" transform="translate(-18.807 -43.832)" fill="#fff"></path> <path id="Path_1563763" data-name="Path 1563763" d="M205.6,75.342c-.956-.315-1.7-.513-2.2-2.671a.684.684,0,0,0-1.33,0c-.487,2.1-1.169,2.33-2.2,2.671a.682.682,0,0,0,0,1.282c1.715.566,1.91,1.4,2.2,2.671a.684.684,0,0,0,1.33,0c.487-2.1,1.207-2.343,2.2-2.671a.682.682,0,0,0,0-1.282Zm-2.853,1.794a3.537,3.537,0,0,0-1.069-1.13,3.386,3.386,0,0,0,1.059-1.187A3.481,3.481,0,0,0,203.763,76a3.355,3.355,0,0,0-1.015,1.135Z" transform="translate(-144.274 -43.795)" fill="#fff"></path> <path id="Path_1563764" data-name="Path 1563764" d="M117.666,213.281a.682.682,0,0,0,1.328,0c.49-2.1,1.207-2.343,2.2-2.671a.682.682,0,0,0,0-1.294c-.956-.315-1.7-.513-2.2-2.673a.682.682,0,0,0-1.328,0c-.49,2.107-1.171,2.332-2.2,2.673a.682.682,0,0,0,0,1.294C117.176,211.177,117.371,212.012,117.666,213.281Zm.666-4.493a3.5,3.5,0,0,0,1.025,1.182,3.373,3.373,0,0,0-1.01,1.135,3.589,3.589,0,0,0-1.066-1.128,3.368,3.368,0,0,0,1.048-1.189Z" transform="translate(-81.491 -143.425)" fill="#fff"></path> </g> </svg>